<svg width="154" height="26" viewBox="0 0 154 26" fill="none" xmlns="http://www.w3.org/2000/svg">
<path d="M13.26 12.564H16.562V15.632H13.26V20H9.594V15.632H0V12.954L9.932 1.176H13.26V12.564ZM4.68 12.564H9.594V6.558L4.68 12.564Z" fill="#0C111D"/>
<path d="M25.7711 7.208C27.0537 7.208 28.1977 7.45933 29.2031 7.962C30.2257 8.46467 31.0231 9.21 31.5951 10.198C32.1844 11.186 32.4791 12.3733 32.4791 13.76C32.4791 15.8227 31.8291 17.4347 30.5291 18.596C29.2291 19.74 27.4004 20.312 25.0431 20.312C23.4137 20.312 22.0444 20.0433 20.9351 19.506C19.8431 18.9687 19.0111 18.258 18.4391 17.374C17.8844 16.49 17.5637 15.5193 17.4771 14.462H21.2211C21.7757 16.4727 23.0411 17.478 25.0171 17.478C26.2304 17.478 27.1491 17.14 27.7731 16.464C28.4144 15.788 28.7351 14.878 28.7351 13.734C28.7351 12.5727 28.4144 11.6713 27.7731 11.03C27.1317 10.3713 26.2217 10.042 25.0431 10.042C23.4831 10.042 22.2871 10.692 21.4551 11.992L18.0751 11.654L19.3491 1.176H31.3871V4.244H22.3911L21.8191 8.56C22.7551 7.65867 24.0724 7.208 25.7711 7.208Z" fill="#0C111D"/>
<path d="M46.9103 1.176C49.5276 1.176 51.8936 1.8 54.0083 3.048C56.1403 4.27867 57.2063 6.792 57.2063 10.588C57.2063 14.384 56.1403 16.906 54.0083 18.154C51.8936 19.3847 49.5276 20 46.9103 20H40.5663V1.176H46.9103ZM46.7803 16.724C47.9763 16.7067 49.0423 16.568 49.9783 16.308C50.9316 16.0307 51.7376 15.4413 52.3963 14.54C53.0723 13.6387 53.4103 12.3213 53.4103 10.588C53.4103 8.85467 53.0723 7.53733 52.3963 6.636C51.7376 5.73467 50.9316 5.14533 49.9783 4.868C49.0423 4.59067 47.9763 4.452 46.7803 4.452H44.2323V16.724H46.7803Z" fill="#0C111D"/>
<path d="M65.8086 5.7C67.3166 5.7 68.608 6.038 69.6826 6.714C70.7746 7.37267 71.5806 8.31733 72.1006 9.548C72.638 10.7787 72.8633 12.226 72.7766 13.89H62.2726C62.394 15.0687 62.7666 15.9613 63.3906 16.568C64.0146 17.1747 64.8293 17.478 65.8346 17.478C66.7186 17.478 67.4293 17.2613 67.9666 16.828C68.5213 16.3947 68.894 15.8487 69.0846 15.19H72.6986C72.3866 16.8193 71.6153 18.0847 70.3846 18.986C69.1713 19.87 67.6546 20.312 65.8346 20.312C64.344 20.312 63.0526 20.0087 61.9606 19.402C60.8686 18.7953 60.0366 17.946 59.4646 16.854C58.8926 15.7447 58.6066 14.462 58.6066 13.006C58.6066 11.5673 58.9013 10.2933 59.4906 9.184C60.08 8.07467 60.9206 7.21667 62.0126 6.61C63.1046 6.00333 64.37 5.7 65.8086 5.7ZM69.1626 11.602C69.0586 10.666 68.7206 9.912 68.1486 9.34C67.594 8.768 66.8053 8.482 65.7826 8.482C64.8466 8.482 64.084 8.742 63.4946 9.262C62.9053 9.782 62.5153 10.562 62.3246 11.602H69.1626Z" fill="#0C111D"/>
<path d="M88.0242 6.012V19.428C88.0242 21.248 87.4436 22.7127 86.2822 23.822C85.1209 24.9487 83.4222 25.512 81.1862 25.512C79.2449 25.512 77.7022 25.0787 76.5582 24.212C75.4142 23.3627 74.7382 22.2187 74.5302 20.78H78.0922C78.5082 22.0627 79.5396 22.704 81.1862 22.704C82.3302 22.704 83.1622 22.418 83.6822 21.846C84.2022 21.2913 84.4622 20.468 84.4622 19.376V17.504C83.4916 18.9947 82.0269 19.74 80.0682 19.74C78.8376 19.74 77.7542 19.4627 76.8182 18.908C75.8996 18.336 75.1802 17.5213 74.6602 16.464C74.1575 15.4067 73.9062 14.1587 73.9062 12.72C73.9062 11.2813 74.1575 10.0333 74.6602 8.976C75.1802 7.91867 75.8996 7.11267 76.8182 6.558C77.7542 5.986 78.8376 5.7 80.0682 5.7C82.0442 5.7 83.5089 6.44533 84.4622 7.936V6.012H88.0242ZM81.0302 16.932C82.1916 16.932 83.0842 16.542 83.7082 15.762C84.3322 14.982 84.6442 13.968 84.6442 12.72C84.6442 11.472 84.3322 10.458 83.7082 9.678C83.0842 8.898 82.1916 8.508 81.0302 8.508C79.8516 8.508 78.9676 8.90667 78.3782 9.704C77.8062 10.484 77.5202 11.4893 77.5202 12.72C77.5202 13.9507 77.8062 14.9647 78.3782 15.762C78.9676 16.542 79.8516 16.932 81.0302 16.932Z" fill="#0C111D"/>
<path d="M97.7452 5.856C98.0398 5.856 98.3345 5.882 98.6292 5.934V9.496C98.3172 9.444 97.9878 9.418 97.6412 9.418C96.5492 9.418 95.7345 9.678 95.1972 10.198C94.6598 10.7007 94.3218 11.2987 94.1832 11.992C94.0445 12.668 93.9752 13.4567 93.9752 14.358V20H90.4132V6.012H93.9232V8.404C94.6858 6.70533 95.9598 5.856 97.7452 5.856Z" fill="#0C111D"/>
<path d="M106.6 5.7C108.108 5.7 109.4 6.038 110.474 6.714C111.566 7.37267 112.372 8.31733 112.892 9.548C113.43 10.7787 113.655 12.226 113.568 13.89H103.064C103.186 15.0687 103.558 15.9613 104.182 16.568C104.806 17.1747 105.621 17.478 106.626 17.478C107.51 17.478 108.221 17.2613 108.758 16.828C109.313 16.3947 109.686 15.8487 109.876 15.19H113.49C113.178 16.8193 112.407 18.0847 111.176 18.986C109.963 19.87 108.446 20.312 106.626 20.312C105.136 20.312 103.844 20.0087 102.752 19.402C101.66 18.7953 100.828 17.946 100.256 16.854C99.6842 15.7447 99.3982 14.462 99.3982 13.006C99.3982 11.5673 99.6929 10.2933 100.282 9.184C100.872 8.07467 101.712 7.21667 102.804 6.61C103.896 6.00333 105.162 5.7 106.6 5.7ZM109.954 11.602C109.85 10.666 109.512 9.912 108.94 9.34C108.386 8.768 107.597 8.482 106.574 8.482C105.638 8.482 104.876 8.742 104.286 9.262C103.697 9.782 103.307 10.562 103.116 11.602H109.954Z" fill="#0C111D"/>
<path d="M121.848 5.7C123.356 5.7 124.647 6.038 125.722 6.714C126.814 7.37267 127.62 8.31733 128.14 9.548C128.677 10.7787 128.902 12.226 128.816 13.89H118.312C118.433 15.0687 118.806 15.9613 119.43 16.568C120.054 17.1747 120.868 17.478 121.874 17.478C122.758 17.478 123.468 17.2613 124.006 16.828C124.56 16.3947 124.933 15.8487 125.124 15.19H128.738C128.426 16.8193 127.654 18.0847 126.424 18.986C125.21 19.87 123.694 20.312 121.874 20.312C120.383 20.312 119.092 20.0087 118 19.402C116.908 18.7953 116.076 17.946 115.504 16.854C114.932 15.7447 114.646 14.462 114.646 13.006C114.646 11.5673 114.94 10.2933 115.53 9.184C116.119 8.07467 116.96 7.21667 118.052 6.61C119.144 6.00333 120.409 5.7 121.848 5.7ZM125.202 11.602C125.098 10.666 124.76 9.912 124.188 9.34C123.633 8.768 122.844 8.482 121.822 8.482C120.886 8.482 120.123 8.742 119.534 9.262C118.944 9.782 118.554 10.562 118.364 11.602H125.202Z" fill="#0C111D"/>
<path d="M136.596 20.312C134.481 20.312 132.843 19.844 131.682 18.908C130.521 17.972 129.862 16.7933 129.706 15.372H133.268C133.736 16.8627 134.871 17.608 136.674 17.608C137.506 17.608 138.156 17.4607 138.624 17.166C139.092 16.854 139.326 16.4553 139.326 15.97C139.326 15.45 139.066 15.086 138.546 14.878C138.043 14.6527 137.177 14.4273 135.946 14.202C134.802 14.0113 133.823 13.786 133.008 13.526C132.193 13.2487 131.491 12.8153 130.902 12.226C130.313 11.6367 130.018 10.848 130.018 9.86C130.018 8.456 130.607 7.416 131.786 6.74C132.965 6.04667 134.403 5.7 136.102 5.7C137.974 5.7 139.465 6.10733 140.574 6.922C141.701 7.73667 142.368 8.82867 142.576 10.198H139.014C138.806 9.626 138.468 9.184 138 8.872C137.549 8.56 136.891 8.404 136.024 8.404C135.279 8.404 134.681 8.52533 134.23 8.768C133.797 9.01067 133.58 9.34 133.58 9.756C133.58 10.12 133.753 10.4233 134.1 10.666C134.464 10.8913 134.863 11.056 135.296 11.16C135.729 11.264 136.475 11.42 137.532 11.628C139.404 11.9747 140.765 12.434 141.614 13.006C142.463 13.578 142.888 14.4447 142.888 15.606C142.888 17.0273 142.342 18.1713 141.25 19.038C140.158 19.8873 138.607 20.312 136.596 20.312Z" fill="#0C111D"/>
<path d="M149.019 9.548C148.239 9.548 147.511 9.37467 146.835 9.028C146.176 8.664 145.647 8.15267 145.249 7.494C144.867 6.83533 144.677 6.07267 144.677 5.206C144.677 4.33933 144.867 3.57667 145.249 2.918C145.647 2.25933 146.176 1.75667 146.835 1.41C147.511 1.046 148.239 0.863999 149.019 0.863999C149.799 0.863999 150.518 1.046 151.177 1.41C151.853 1.75667 152.39 2.268 152.789 2.944C153.187 3.60267 153.387 4.35667 153.387 5.206C153.387 6.05533 153.187 6.818 152.789 7.494C152.39 8.15267 151.853 8.664 151.177 9.028C150.518 9.37467 149.799 9.548 149.019 9.548ZM149.019 7.364C149.608 7.364 150.076 7.17333 150.423 6.792C150.787 6.39333 150.969 5.86467 150.969 5.206C150.969 4.54733 150.787 4.02733 150.423 3.646C150.076 3.26467 149.608 3.074 149.019 3.074C148.447 3.074 147.979 3.26467 147.615 3.646C147.268 4.02733 147.095 4.54733 147.095 5.206C147.095 5.86467 147.268 6.39333 147.615 6.792C147.979 7.17333 148.447 7.364 149.019 7.364Z" fill="#0C111D"/>
<path fill-rule="evenodd" clip-rule="evenodd" d="M149.035 3.26999C147.96 3.26999 147.09 4.14079 147.09 5.21499C147.09 6.28918 147.96 7.15999 149.035 7.15999C150.109 7.15999 150.98 6.28918 150.98 5.21499C150.98 4.14079 150.109 3.26999 149.035 3.26999ZM149.035 9.56999C151.44 9.56999 153.39 7.62019 153.39 5.21499C153.39 2.80979 151.44 0.859985 149.035 0.859985C146.629 0.859985 144.68 2.80979 144.68 5.21499C144.68 7.62019 146.629 9.56999 149.035 9.56999Z" fill="#0C111D"/>
</svg>
