<svg width="654" height="387" viewBox="0 0 654 387" fill="none" xmlns="http://www.w3.org/2000/svg">
<mask id="mask0_0_1" style="mask-type:alpha" maskUnits="userSpaceOnUse" x="0" y="0" width="654" height="387">
<rect width="654" height="387" rx="20" fill="#EBF4F6"/>
</mask>
<g mask="url(#mask0_0_1)">
<mask id="path-2-inside-1_0_1" fill="white">
<path d="M693.661 271.74C649.051 216.414 592.5 171.9 528.243 141.534C463.987 111.168 393.691 95.7369 322.624 96.3972C251.556 97.0576 181.56 113.792 117.879 145.347C54.1976 176.902 -1.51702 222.459 -45.0906 278.604L-43.8794 279.545C-0.447622 223.582 55.0856 178.173 118.56 146.721C182.033 115.269 251.802 98.5886 322.638 97.9304C393.474 97.2722 463.541 112.653 527.588 142.92C591.635 173.187 648.003 217.556 692.467 272.703L693.661 271.74Z"/>
</mask>
<path d="M693.661 271.74C649.051 216.414 592.5 171.9 528.243 141.534C463.987 111.168 393.691 95.7369 322.624 96.3972C251.556 97.0576 181.56 113.792 117.879 145.347C54.1976 176.902 -1.51702 222.459 -45.0906 278.604L-43.8794 279.545C-0.447622 223.582 55.0856 178.173 118.56 146.721C182.033 115.269 251.802 98.5886 322.638 97.9304C393.474 97.2722 463.541 112.653 527.588 142.92C591.635 173.187 648.003 217.556 692.467 272.703L693.661 271.74Z" stroke="#D9DFDF" stroke-opacity="0.5" stroke-width="3.08852" mask="url(#path-2-inside-1_0_1)"/>
<mask id="path-3-inside-2_0_1" fill="white">
<path d="M693.661 260.74C649.051 205.414 592.5 160.9 528.243 130.534C463.987 100.168 393.691 84.7369 322.624 85.3972C251.556 86.0576 181.56 102.792 117.879 134.347C54.1976 165.902 -1.51702 211.459 -45.0906 267.604L-43.8794 268.545C-0.447622 212.582 55.0856 167.173 118.56 135.721C182.033 104.269 251.802 87.5886 322.638 86.9304C393.474 86.2722 463.541 101.653 527.588 131.92C591.635 162.187 648.003 206.556 692.467 261.703L693.661 260.74Z"/>
</mask>
<path d="M693.661 260.74C649.051 205.414 592.5 160.9 528.243 130.534C463.987 100.168 393.691 84.7369 322.624 85.3972C251.556 86.0576 181.56 102.792 117.879 134.347C54.1976 165.902 -1.51702 211.459 -45.0906 267.604L-43.8794 268.545C-0.447622 212.582 55.0856 167.173 118.56 135.721C182.033 104.269 251.802 87.5886 322.638 86.9304C393.474 86.2722 463.541 101.653 527.588 131.92C591.635 162.187 648.003 206.556 692.467 261.703L693.661 260.74Z" stroke="#D9DFDF" stroke-opacity="0.5" stroke-width="3.08852" mask="url(#path-3-inside-2_0_1)"/>
<mask id="path-4-inside-3_0_1" fill="white">
<path d="M693.661 249.74C649.051 194.414 592.5 149.9 528.243 119.534C463.987 89.1679 393.691 73.7369 322.624 74.3972C251.556 75.0576 181.56 91.7921 117.879 123.347C54.1976 154.902 -1.51702 200.459 -45.0906 256.604L-43.8794 257.545C-0.447622 201.582 55.0856 156.173 118.56 124.721C182.033 93.2686 251.802 76.5886 322.638 75.9304C393.474 75.2722 463.541 90.6529 527.588 120.92C591.635 151.187 648.003 195.556 692.467 250.703L693.661 249.74Z"/>
</mask>
<path d="M693.661 249.74C649.051 194.414 592.5 149.9 528.243 119.534C463.987 89.1679 393.691 73.7369 322.624 74.3972C251.556 75.0576 181.56 91.7921 117.879 123.347C54.1976 154.902 -1.51702 200.459 -45.0906 256.604L-43.8794 257.545C-0.447622 201.582 55.0856 156.173 118.56 124.721C182.033 93.2686 251.802 76.5886 322.638 75.9304C393.474 75.2722 463.541 90.6529 527.588 120.92C591.635 151.187 648.003 195.556 692.467 250.703L693.661 249.74Z" stroke="#D9DFDF" stroke-opacity="0.5" stroke-width="3.08852" mask="url(#path-4-inside-3_0_1)"/>
<mask id="path-5-inside-4_0_1" fill="white">
<path d="M693.661 238.74C649.051 183.414 592.5 138.9 528.243 108.534C463.987 78.1679 393.691 62.7369 322.624 63.3972C251.556 64.0576 181.56 80.7921 117.879 112.347C54.1976 143.902 -1.51702 189.459 -45.0906 245.604L-43.8794 246.545C-0.447622 190.582 55.0856 145.173 118.56 113.721C182.033 82.2686 251.802 65.5886 322.638 64.9304C393.474 64.2722 463.541 79.6529 527.588 109.92C591.635 140.187 648.003 184.556 692.467 239.703L693.661 238.74Z"/>
</mask>
<path d="M693.661 238.74C649.051 183.414 592.5 138.9 528.243 108.534C463.987 78.1679 393.691 62.7369 322.624 63.3972C251.556 64.0576 181.56 80.7921 117.879 112.347C54.1976 143.902 -1.51702 189.459 -45.0906 245.604L-43.8794 246.545C-0.447622 190.582 55.0856 145.173 118.56 113.721C182.033 82.2686 251.802 65.5886 322.638 64.9304C393.474 64.2722 463.541 79.6529 527.588 109.92C591.635 140.187 648.003 184.556 692.467 239.703L693.661 238.74Z" stroke="#D9DFDF" stroke-opacity="0.5" stroke-width="3.08852" mask="url(#path-5-inside-4_0_1)"/>
<mask id="path-6-inside-5_0_1" fill="white">
<path d="M693.661 227.74C649.051 172.414 592.5 127.9 528.243 97.534C463.987 67.1679 393.691 51.7369 322.624 52.3972C251.556 53.0576 181.56 69.7921 117.879 101.347C54.1976 132.902 -1.51702 178.459 -45.0906 234.604L-43.8794 235.545C-0.447622 179.582 55.0856 134.173 118.56 102.721C182.033 71.2686 251.802 54.5886 322.638 53.9304C393.474 53.2722 463.541 68.6529 527.588 98.9202C591.635 129.187 648.003 173.556 692.467 228.703L693.661 227.74Z"/>
</mask>
<path d="M693.661 227.74C649.051 172.414 592.5 127.9 528.243 97.534C463.987 67.1679 393.691 51.7369 322.624 52.3972C251.556 53.0576 181.56 69.7921 117.879 101.347C54.1976 132.902 -1.51702 178.459 -45.0906 234.604L-43.8794 235.545C-0.447622 179.582 55.0856 134.173 118.56 102.721C182.033 71.2686 251.802 54.5886 322.638 53.9304C393.474 53.2722 463.541 68.6529 527.588 98.9202C591.635 129.187 648.003 173.556 692.467 228.703L693.661 227.74Z" stroke="#D9DFDF" stroke-opacity="0.5" stroke-width="3.08852" mask="url(#path-6-inside-5_0_1)"/>
<mask id="path-7-inside-6_0_1" fill="white">
<path d="M693.661 216.74C649.051 161.414 592.5 116.9 528.243 86.534C463.987 56.1679 393.691 40.7369 322.624 41.3972C251.556 42.0576 181.56 58.7921 117.879 90.3469C54.1976 121.902 -1.51702 167.459 -45.0906 223.604L-43.8794 224.545C-0.447622 168.582 55.0856 123.173 118.56 91.7208C182.033 60.2686 251.802 43.5886 322.638 42.9304C393.474 42.2722 463.541 57.6529 527.588 87.9202C591.635 118.187 648.003 162.556 692.467 217.703L693.661 216.74Z"/>
</mask>
<path d="M693.661 216.74C649.051 161.414 592.5 116.9 528.243 86.534C463.987 56.1679 393.691 40.7369 322.624 41.3972C251.556 42.0576 181.56 58.7921 117.879 90.3469C54.1976 121.902 -1.51702 167.459 -45.0906 223.604L-43.8794 224.545C-0.447622 168.582 55.0856 123.173 118.56 91.7208C182.033 60.2686 251.802 43.5886 322.638 42.9304C393.474 42.2722 463.541 57.6529 527.588 87.9202C591.635 118.187 648.003 162.556 692.467 217.703L693.661 216.74Z" stroke="#D9DFDF" stroke-opacity="0.5" stroke-width="3.08852" mask="url(#path-7-inside-6_0_1)"/>
<mask id="path-8-inside-7_0_1" fill="white">
<path d="M693.661 205.74C649.051 150.414 592.5 105.9 528.243 75.534C463.987 45.1679 393.691 29.7369 322.624 30.3972C251.556 31.0576 181.56 47.7921 117.879 79.3469C54.1976 110.902 -1.51702 156.459 -45.0906 212.604L-43.8794 213.545C-0.447622 157.582 55.0856 112.173 118.56 80.7208C182.033 49.2686 251.802 32.5886 322.638 31.9304C393.474 31.2722 463.541 46.6529 527.588 76.9202C591.635 107.187 648.003 151.556 692.467 206.703L693.661 205.74Z"/>
</mask>
<path d="M693.661 205.74C649.051 150.414 592.5 105.9 528.243 75.534C463.987 45.1679 393.691 29.7369 322.624 30.3972C251.556 31.0576 181.56 47.7921 117.879 79.3469C54.1976 110.902 -1.51702 156.459 -45.0906 212.604L-43.8794 213.545C-0.447622 157.582 55.0856 112.173 118.56 80.7208C182.033 49.2686 251.802 32.5886 322.638 31.9304C393.474 31.2722 463.541 46.6529 527.588 76.9202C591.635 107.187 648.003 151.556 692.467 206.703L693.661 205.74Z" stroke="#D9DFDF" stroke-opacity="0.5" stroke-width="3.08852" mask="url(#path-8-inside-7_0_1)"/>
<mask id="path-9-inside-8_0_1" fill="white">
<path d="M693.661 194.74C649.051 139.414 592.5 94.9001 528.243 64.534C463.987 34.1679 393.691 18.7369 322.624 19.3972C251.556 20.0576 181.56 36.7921 117.879 68.3469C54.1976 99.9018 -1.51702 145.459 -45.0906 201.604L-43.8794 202.545C-0.447622 146.582 55.0856 101.173 118.56 69.7208C182.033 38.2686 251.802 21.5886 322.638 20.9304C393.474 20.2722 463.541 35.6529 527.588 65.9202C591.635 96.1874 648.003 140.556 692.467 195.703L693.661 194.74Z"/>
</mask>
<path d="M693.661 194.74C649.051 139.414 592.5 94.9001 528.243 64.534C463.987 34.1679 393.691 18.7369 322.624 19.3972C251.556 20.0576 181.56 36.7921 117.879 68.3469C54.1976 99.9018 -1.51702 145.459 -45.0906 201.604L-43.8794 202.545C-0.447622 146.582 55.0856 101.173 118.56 69.7208C182.033 38.2686 251.802 21.5886 322.638 20.9304C393.474 20.2722 463.541 35.6529 527.588 65.9202C591.635 96.1874 648.003 140.556 692.467 195.703L693.661 194.74Z" stroke="#D9DFDF" stroke-opacity="0.5" stroke-width="3.08852" mask="url(#path-9-inside-8_0_1)"/>
<mask id="path-10-inside-9_0_1" fill="white">
<path d="M693.661 183.74C649.051 128.414 592.5 83.9001 528.243 53.534C463.987 23.1679 393.691 7.7369 322.624 8.39724C251.557 9.05757 181.56 25.7921 117.879 57.3469C54.1976 88.9018 -1.51696 134.459 -45.0906 190.604L-43.8793 191.545C-0.447561 135.582 55.0857 90.1729 118.56 58.7208C182.034 27.2686 251.802 10.5886 322.638 9.93044C393.474 9.27224 463.541 24.6529 527.588 54.9202C591.635 85.1874 648.003 129.556 692.467 184.703L693.661 183.74Z"/>
</mask>
<path d="M693.661 183.74C649.051 128.414 592.5 83.9001 528.243 53.534C463.987 23.1679 393.691 7.7369 322.624 8.39724C251.557 9.05757 181.56 25.7921 117.879 57.3469C54.1976 88.9018 -1.51696 134.459 -45.0906 190.604L-43.8793 191.545C-0.447561 135.582 55.0857 90.1729 118.56 58.7208C182.034 27.2686 251.802 10.5886 322.638 9.93044C393.474 9.27224 463.541 24.6529 527.588 54.9202C591.635 85.1874 648.003 129.556 692.467 184.703L693.661 183.74Z" stroke="#D9DFDF" stroke-opacity="0.5" stroke-width="3.08852" mask="url(#path-10-inside-9_0_1)"/>
<mask id="path-11-inside-10_0_1" fill="white">
<path d="M693.661 172.74C649.051 117.414 592.5 72.9001 528.243 42.534C463.987 12.1679 393.691 -3.2631 322.624 -2.60276C251.557 -1.94243 181.56 14.7921 117.879 46.3469C54.1976 77.9018 -1.51696 123.459 -45.0906 179.604L-43.8793 180.545C-0.447561 124.582 55.0857 79.1729 118.56 47.7208C182.034 16.2686 251.802 -0.411425 322.638 -1.06956C393.474 -1.72776 463.541 13.6529 527.588 43.9202C591.635 74.1874 648.003 118.556 692.467 173.703L693.661 172.74Z"/>
</mask>
<path d="M693.661 172.74C649.051 117.414 592.5 72.9001 528.243 42.534C463.987 12.1679 393.691 -3.2631 322.624 -2.60276C251.557 -1.94243 181.56 14.7921 117.879 46.3469C54.1976 77.9018 -1.51696 123.459 -45.0906 179.604L-43.8793 180.545C-0.447561 124.582 55.0857 79.1729 118.56 47.7208C182.034 16.2686 251.802 -0.411425 322.638 -1.06956C393.474 -1.72776 463.541 13.6529 527.588 43.9202C591.635 74.1874 648.003 118.556 692.467 173.703L693.661 172.74Z" stroke="#D9DFDF" stroke-opacity="0.5" stroke-width="3.08852" mask="url(#path-11-inside-10_0_1)"/>
<mask id="path-12-inside-11_0_1" fill="white">
<path d="M693.661 160.74C649.051 105.414 592.5 60.9001 528.243 30.534C463.987 0.167879 393.691 -15.2631 322.624 -14.6028C251.557 -13.9424 181.56 2.79206 117.879 34.3469C54.1976 65.9018 -1.51696 111.459 -45.0906 167.604L-43.8793 168.545C-0.447561 112.582 55.0857 67.1729 118.56 35.7208C182.034 4.26862 251.802 -12.4114 322.638 -13.0696C393.474 -13.7278 463.541 1.65292 527.588 31.9202C591.635 62.1874 648.003 106.556 692.467 161.703L693.661 160.74Z"/>
</mask>
<path d="M693.661 160.74C649.051 105.414 592.5 60.9001 528.243 30.534C463.987 0.167879 393.691 -15.2631 322.624 -14.6028C251.557 -13.9424 181.56 2.79206 117.879 34.3469C54.1976 65.9018 -1.51696 111.459 -45.0906 167.604L-43.8793 168.545C-0.447561 112.582 55.0857 67.1729 118.56 35.7208C182.034 4.26862 251.802 -12.4114 322.638 -13.0696C393.474 -13.7278 463.541 1.65292 527.588 31.9202C591.635 62.1874 648.003 106.556 692.467 161.703L693.661 160.74Z" stroke="#D9DFDF" stroke-opacity="0.5" stroke-width="3.08852" mask="url(#path-12-inside-11_0_1)"/>
<mask id="path-13-inside-12_0_1" fill="white">
<path d="M693.661 148.74C649.051 93.4139 592.5 48.9001 528.243 18.534C463.987 -11.8321 393.691 -27.2631 322.624 -26.6028C251.557 -25.9424 181.56 -9.20794 117.879 22.3469C54.1976 53.9018 -1.51696 99.4587 -45.0906 155.604L-43.8793 156.545C-0.447561 100.582 55.0857 55.1729 118.56 23.7208C182.034 -7.73138 251.802 -24.4114 322.638 -25.0696C393.474 -25.7278 463.541 -10.3471 527.588 19.9202C591.635 50.1874 648.003 94.5564 692.467 149.703L693.661 148.74Z"/>
</mask>
<path d="M693.661 148.74C649.051 93.4139 592.5 48.9001 528.243 18.534C463.987 -11.8321 393.691 -27.2631 322.624 -26.6028C251.557 -25.9424 181.56 -9.20794 117.879 22.3469C54.1976 53.9018 -1.51696 99.4587 -45.0906 155.604L-43.8793 156.545C-0.447561 100.582 55.0857 55.1729 118.56 23.7208C182.034 -7.73138 251.802 -24.4114 322.638 -25.0696C393.474 -25.7278 463.541 -10.3471 527.588 19.9202C591.635 50.1874 648.003 94.5564 692.467 149.703L693.661 148.74Z" stroke="#D9DFDF" stroke-opacity="0.5" stroke-width="3.08852" mask="url(#path-13-inside-12_0_1)"/>
<mask id="path-14-inside-13_0_1" fill="white">
<path d="M693.661 136.74C649.051 81.4139 592.5 36.9001 528.243 6.53397C463.987 -23.8321 393.691 -39.2631 322.624 -38.6028C251.557 -37.9424 181.56 -21.2079 117.879 10.3469C54.1976 41.9018 -1.51696 87.4587 -45.0906 143.604L-43.8793 144.545C-0.447561 88.5815 55.0857 43.1729 118.56 11.7208C182.034 -19.7314 251.802 -36.4114 322.638 -37.0696C393.474 -37.7278 463.541 -22.3471 527.588 7.9202C591.635 38.1874 648.003 82.5564 692.467 137.703L693.661 136.74Z"/>
</mask>
<path d="M693.661 136.74C649.051 81.4139 592.5 36.9001 528.243 6.53397C463.987 -23.8321 393.691 -39.2631 322.624 -38.6028C251.557 -37.9424 181.56 -21.2079 117.879 10.3469C54.1976 41.9018 -1.51696 87.4587 -45.0906 143.604L-43.8793 144.545C-0.447561 88.5815 55.0857 43.1729 118.56 11.7208C182.034 -19.7314 251.802 -36.4114 322.638 -37.0696C393.474 -37.7278 463.541 -22.3471 527.588 7.9202C591.635 38.1874 648.003 82.5564 692.467 137.703L693.661 136.74Z" stroke="#D9DFDF" stroke-opacity="0.5" stroke-width="3.08852" mask="url(#path-14-inside-13_0_1)"/>
<mask id="path-15-inside-14_0_1" fill="white">
<path d="M693.661 124.74C649.051 69.4139 592.5 24.9001 528.243 -5.46603C463.987 -35.8321 393.691 -51.2631 322.624 -50.6028C251.557 -49.9424 181.56 -33.2079 117.879 -1.65307C54.1976 29.9018 -1.51696 75.4587 -45.0906 131.604L-43.8793 132.545C-0.447561 76.5815 55.0857 31.1729 118.56 -0.279234C182.034 -31.7314 251.802 -48.4114 322.638 -49.0696C393.474 -49.7278 463.541 -34.3471 527.588 -4.0798C591.635 26.1874 648.003 70.5564 692.467 125.703L693.661 124.74Z"/>
</mask>
<path d="M693.661 124.74C649.051 69.4139 592.5 24.9001 528.243 -5.46603C463.987 -35.8321 393.691 -51.2631 322.624 -50.6028C251.557 -49.9424 181.56 -33.2079 117.879 -1.65307C54.1976 29.9018 -1.51696 75.4587 -45.0906 131.604L-43.8793 132.545C-0.447561 76.5815 55.0857 31.1729 118.56 -0.279234C182.034 -31.7314 251.802 -48.4114 322.638 -49.0696C393.474 -49.7278 463.541 -34.3471 527.588 -4.0798C591.635 26.1874 648.003 70.5564 692.467 125.703L693.661 124.74Z" stroke="#D9DFDF" stroke-opacity="0.5" stroke-width="3.08852" mask="url(#path-15-inside-14_0_1)"/>
<mask id="path-16-inside-15_0_1" fill="white">
<path d="M693.661 112.74C649.051 57.4139 592.5 12.9001 528.243 -17.466C463.987 -47.8321 393.691 -63.2631 322.624 -62.6028C251.557 -61.9424 181.56 -45.2079 117.879 -13.6531C54.1976 17.9018 -1.51696 63.4587 -45.0906 119.604L-43.8793 120.545C-0.447561 64.5815 55.0857 19.1729 118.56 -12.2792C182.034 -43.7314 251.802 -60.4114 322.638 -61.0696C393.474 -61.7278 463.541 -46.3471 527.588 -16.0798C591.635 14.1874 648.003 58.5564 692.467 113.703L693.661 112.74Z"/>
</mask>
<path d="M693.661 112.74C649.051 57.4139 592.5 12.9001 528.243 -17.466C463.987 -47.8321 393.691 -63.2631 322.624 -62.6028C251.557 -61.9424 181.56 -45.2079 117.879 -13.6531C54.1976 17.9018 -1.51696 63.4587 -45.0906 119.604L-43.8793 120.545C-0.447561 64.5815 55.0857 19.1729 118.56 -12.2792C182.034 -43.7314 251.802 -60.4114 322.638 -61.0696C393.474 -61.7278 463.541 -46.3471 527.588 -16.0798C591.635 14.1874 648.003 58.5564 692.467 113.703L693.661 112.74Z" stroke="#D9DFDF" stroke-opacity="0.5" stroke-width="3.08852" mask="url(#path-16-inside-15_0_1)"/>
<mask id="path-17-inside-16_0_1" fill="white">
<path d="M693.661 100.74C649.051 45.4139 592.5 0.900067 528.243 -29.466C463.987 -59.8321 393.691 -75.2631 322.624 -74.6028C251.557 -73.9424 181.56 -57.2079 117.879 -25.6531C54.1976 5.90179 -1.51696 51.4587 -45.0906 107.604L-43.8793 108.545C-0.447561 52.5815 55.0857 7.17291 118.56 -24.2792C182.034 -55.7314 251.802 -72.4114 322.638 -73.0696C393.474 -73.7278 463.541 -58.3471 527.588 -28.0798C591.635 2.18742 648.003 46.5564 692.467 101.703L693.661 100.74Z"/>
</mask>
<path d="M693.661 100.74C649.051 45.4139 592.5 0.900067 528.243 -29.466C463.987 -59.8321 393.691 -75.2631 322.624 -74.6028C251.557 -73.9424 181.56 -57.2079 117.879 -25.6531C54.1976 5.90179 -1.51696 51.4587 -45.0906 107.604L-43.8793 108.545C-0.447561 52.5815 55.0857 7.17291 118.56 -24.2792C182.034 -55.7314 251.802 -72.4114 322.638 -73.0696C393.474 -73.7278 463.541 -58.3471 527.588 -28.0798C591.635 2.18742 648.003 46.5564 692.467 101.703L693.661 100.74Z" stroke="#D9DFDF" stroke-opacity="0.5" stroke-width="3.08852" mask="url(#path-17-inside-16_0_1)"/>
<mask id="path-18-inside-17_0_1" fill="white">
<path d="M693.661 88.7403C649.051 33.4139 592.5 -11.0999 528.243 -41.466C463.987 -71.8321 393.691 -87.2631 322.624 -86.6028C251.557 -85.9424 181.56 -69.2079 117.879 -37.6531C54.1976 -6.09821 -1.51696 39.4587 -45.0906 95.6045L-43.8793 96.5445C-0.447561 40.5815 55.0857 -4.82709 118.56 -36.2792C182.034 -67.7314 251.802 -84.4114 322.638 -85.0696C393.474 -85.7278 463.541 -70.3471 527.588 -40.0798C591.635 -9.81258 648.003 34.5564 692.467 89.7026L693.661 88.7403Z"/>
</mask>
<path d="M693.661 88.7403C649.051 33.4139 592.5 -11.0999 528.243 -41.466C463.987 -71.8321 393.691 -87.2631 322.624 -86.6028C251.557 -85.9424 181.56 -69.2079 117.879 -37.6531C54.1976 -6.09821 -1.51696 39.4587 -45.0906 95.6045L-43.8793 96.5445C-0.447561 40.5815 55.0857 -4.82709 118.56 -36.2792C182.034 -67.7314 251.802 -84.4114 322.638 -85.0696C393.474 -85.7278 463.541 -70.3471 527.588 -40.0798C591.635 -9.81258 648.003 34.5564 692.467 89.7026L693.661 88.7403Z" stroke="#D9DFDF" stroke-opacity="0.5" stroke-width="3.08852" mask="url(#path-18-inside-17_0_1)"/>
<mask id="path-19-inside-18_0_1" fill="white">
<path d="M693.661 76.7403C649.051 21.4139 592.5 -23.0999 528.243 -53.466C463.987 -83.8321 393.691 -99.2631 322.624 -98.6028C251.557 -97.9424 181.56 -81.2079 117.879 -49.6531C54.1976 -18.0982 -1.51696 27.4587 -45.0906 83.6045L-43.8793 84.5445C-0.447561 28.5815 55.0857 -16.8271 118.56 -48.2792C182.034 -79.7314 251.802 -96.4114 322.638 -97.0696C393.474 -97.7278 463.541 -82.3471 527.588 -52.0798C591.635 -21.8126 648.003 22.5564 692.467 77.7026L693.661 76.7403Z"/>
</mask>
<path d="M693.661 76.7403C649.051 21.4139 592.5 -23.0999 528.243 -53.466C463.987 -83.8321 393.691 -99.2631 322.624 -98.6028C251.557 -97.9424 181.56 -81.2079 117.879 -49.6531C54.1976 -18.0982 -1.51696 27.4587 -45.0906 83.6045L-43.8793 84.5445C-0.447561 28.5815 55.0857 -16.8271 118.56 -48.2792C182.034 -79.7314 251.802 -96.4114 322.638 -97.0696C393.474 -97.7278 463.541 -82.3471 527.588 -52.0798C591.635 -21.8126 648.003 22.5564 692.467 77.7026L693.661 76.7403Z" stroke="#D9DFDF" stroke-opacity="0.5" stroke-width="3.08852" mask="url(#path-19-inside-18_0_1)"/>
<mask id="path-20-inside-19_0_1" fill="white">
<path d="M693.661 64.7403C649.051 9.41387 592.5 -35.0999 528.243 -65.466C463.987 -95.8321 393.691 -111.263 322.624 -110.603C251.557 -109.942 181.56 -93.2079 117.879 -61.6531C54.1976 -30.0982 -1.51696 15.4587 -45.0906 71.6045L-43.8793 72.5445C-0.447561 16.5815 55.0857 -28.8271 118.56 -60.2792C182.034 -91.7314 251.802 -108.411 322.638 -109.07C393.474 -109.728 463.541 -94.3471 527.588 -64.0798C591.635 -33.8126 648.003 10.5564 692.467 65.7026L693.661 64.7403Z"/>
</mask>
<path d="M693.661 64.7403C649.051 9.41387 592.5 -35.0999 528.243 -65.466C463.987 -95.8321 393.691 -111.263 322.624 -110.603C251.557 -109.942 181.56 -93.2079 117.879 -61.6531C54.1976 -30.0982 -1.51696 15.4587 -45.0906 71.6045L-43.8793 72.5445C-0.447561 16.5815 55.0857 -28.8271 118.56 -60.2792C182.034 -91.7314 251.802 -108.411 322.638 -109.07C393.474 -109.728 463.541 -94.3471 527.588 -64.0798C591.635 -33.8126 648.003 10.5564 692.467 65.7026L693.661 64.7403Z" stroke="#D9DFDF" stroke-opacity="0.5" stroke-width="3.08852" mask="url(#path-20-inside-19_0_1)"/>
<mask id="path-21-inside-20_0_1" fill="white">
<path d="M693.661 52.7403C649.051 -2.58613 592.5 -47.0999 528.243 -77.466C463.987 -107.832 393.691 -123.263 322.624 -122.603C251.557 -121.942 181.56 -105.208 117.879 -73.6531C54.1976 -42.0982 -1.51696 3.45873 -45.0906 59.6045L-43.8793 60.5445C-0.447561 4.58153 55.0857 -40.8271 118.56 -72.2792C182.034 -103.731 251.802 -120.411 322.638 -121.07C393.474 -121.728 463.541 -106.347 527.588 -76.0798C591.635 -45.8126 648.003 -1.44362 692.467 53.7026L693.661 52.7403Z"/>
</mask>
<path d="M693.661 52.7403C649.051 -2.58613 592.5 -47.0999 528.243 -77.466C463.987 -107.832 393.691 -123.263 322.624 -122.603C251.557 -121.942 181.56 -105.208 117.879 -73.6531C54.1976 -42.0982 -1.51696 3.45873 -45.0906 59.6045L-43.8793 60.5445C-0.447561 4.58153 55.0857 -40.8271 118.56 -72.2792C182.034 -103.731 251.802 -120.411 322.638 -121.07C393.474 -121.728 463.541 -106.347 527.588 -76.0798C591.635 -45.8126 648.003 -1.44362 692.467 53.7026L693.661 52.7403Z" stroke="#D9DFDF" stroke-opacity="0.5" stroke-width="3.08852" mask="url(#path-21-inside-20_0_1)"/>
<mask id="path-22-inside-21_0_1" fill="white">
<path d="M693.661 40.7403C649.051 -14.5861 592.5 -59.0999 528.243 -89.466C463.987 -119.832 393.691 -135.263 322.624 -134.603C251.557 -133.942 181.56 -117.208 117.879 -85.6531C54.1976 -54.0982 -1.51696 -8.54127 -45.0906 47.6045L-43.8793 48.5445C-0.447561 -7.41847 55.0857 -52.8271 118.56 -84.2792C182.034 -115.731 251.802 -132.411 322.638 -133.07C393.474 -133.728 463.541 -118.347 527.588 -88.0798C591.635 -57.8126 648.003 -13.4436 692.467 41.7026L693.661 40.7403Z"/>
</mask>
<path d="M693.661 40.7403C649.051 -14.5861 592.5 -59.0999 528.243 -89.466C463.987 -119.832 393.691 -135.263 322.624 -134.603C251.557 -133.942 181.56 -117.208 117.879 -85.6531C54.1976 -54.0982 -1.51696 -8.54127 -45.0906 47.6045L-43.8793 48.5445C-0.447561 -7.41847 55.0857 -52.8271 118.56 -84.2792C182.034 -115.731 251.802 -132.411 322.638 -133.07C393.474 -133.728 463.541 -118.347 527.588 -88.0798C591.635 -57.8126 648.003 -13.4436 692.467 41.7026L693.661 40.7403Z" stroke="#D9DFDF" stroke-opacity="0.5" stroke-width="3.08852" mask="url(#path-22-inside-21_0_1)"/>
<mask id="path-23-inside-22_0_1" fill="white">
<path d="M693.661 28.7403C649.051 -26.5861 592.5 -71.0999 528.243 -101.466C463.987 -131.832 393.691 -147.263 322.624 -146.603C251.556 -145.942 181.56 -129.208 117.879 -97.6531C54.1976 -66.0982 -1.51702 -20.5413 -45.0906 35.6045L-43.8794 36.5445C-0.447622 -19.4185 55.0856 -64.8271 118.56 -96.2792C182.033 -127.731 251.802 -144.411 322.638 -145.07C393.474 -145.728 463.541 -130.347 527.588 -100.08C591.635 -69.8126 648.003 -25.4436 692.467 29.7026L693.661 28.7403Z"/>
</mask>
<path d="M693.661 28.7403C649.051 -26.5861 592.5 -71.0999 528.243 -101.466C463.987 -131.832 393.691 -147.263 322.624 -146.603C251.556 -145.942 181.56 -129.208 117.879 -97.6531C54.1976 -66.0982 -1.51702 -20.5413 -45.0906 35.6045L-43.8794 36.5445C-0.447622 -19.4185 55.0856 -64.8271 118.56 -96.2792C182.033 -127.731 251.802 -144.411 322.638 -145.07C393.474 -145.728 463.541 -130.347 527.588 -100.08C591.635 -69.8126 648.003 -25.4436 692.467 29.7026L693.661 28.7403Z" stroke="#D9DFDF" stroke-opacity="0.5" stroke-width="3.08852" mask="url(#path-23-inside-22_0_1)"/>
<mask id="path-24-inside-23_0_1" fill="white">
<path d="M693.661 16.7403C649.051 -38.5861 592.5 -83.0999 528.243 -113.466C463.987 -143.832 393.691 -159.263 322.624 -158.603C251.556 -157.942 181.56 -141.208 117.879 -109.653C54.1976 -78.0982 -1.51702 -32.5413 -45.0906 23.6045L-43.8794 24.5445C-0.447622 -31.4185 55.0856 -76.8271 118.56 -108.279C182.033 -139.731 251.802 -156.411 322.638 -157.07C393.474 -157.728 463.541 -142.347 527.588 -112.08C591.635 -81.8126 648.003 -37.4436 692.467 17.7026L693.661 16.7403Z"/>
</mask>
<path d="M693.661 16.7403C649.051 -38.5861 592.5 -83.0999 528.243 -113.466C463.987 -143.832 393.691 -159.263 322.624 -158.603C251.556 -157.942 181.56 -141.208 117.879 -109.653C54.1976 -78.0982 -1.51702 -32.5413 -45.0906 23.6045L-43.8794 24.5445C-0.447622 -31.4185 55.0856 -76.8271 118.56 -108.279C182.033 -139.731 251.802 -156.411 322.638 -157.07C393.474 -157.728 463.541 -142.347 527.588 -112.08C591.635 -81.8126 648.003 -37.4436 692.467 17.7026L693.661 16.7403Z" stroke="#D9DFDF" stroke-opacity="0.5" stroke-width="3.08852" mask="url(#path-24-inside-23_0_1)"/>
<mask id="path-25-inside-24_0_1" fill="white">
<path d="M693.661 4.74029C649.051 -50.5861 592.5 -95.0999 528.243 -125.466C463.987 -155.832 393.691 -171.263 322.624 -170.603C251.556 -169.942 181.56 -153.208 117.879 -121.653C54.1976 -90.0982 -1.51702 -44.5413 -45.0906 11.6045L-43.8794 12.5445C-0.447622 -43.4185 55.0856 -88.8271 118.56 -120.279C182.033 -151.731 251.802 -168.411 322.638 -169.07C393.474 -169.728 463.541 -154.347 527.588 -124.08C591.635 -93.8126 648.003 -49.4436 692.467 5.70263L693.661 4.74029Z"/>
</mask>
<path d="M693.661 4.74029C649.051 -50.5861 592.5 -95.0999 528.243 -125.466C463.987 -155.832 393.691 -171.263 322.624 -170.603C251.556 -169.942 181.56 -153.208 117.879 -121.653C54.1976 -90.0982 -1.51702 -44.5413 -45.0906 11.6045L-43.8794 12.5445C-0.447622 -43.4185 55.0856 -88.8271 118.56 -120.279C182.033 -151.731 251.802 -168.411 322.638 -169.07C393.474 -169.728 463.541 -154.347 527.588 -124.08C591.635 -93.8126 648.003 -49.4436 692.467 5.70263L693.661 4.74029Z" stroke="#D9DFDF" stroke-opacity="0.5" stroke-width="3.08852" mask="url(#path-25-inside-24_0_1)"/>
<mask id="path-26-inside-25_0_1" fill="white">
<path d="M693.661 -7.25971C649.051 -62.5861 592.5 -107.1 528.243 -137.466C463.987 -167.832 393.691 -183.263 322.624 -182.603C251.556 -181.942 181.56 -165.208 117.879 -133.653C54.1976 -102.098 -1.51702 -56.5413 -45.0906 -0.39552L-43.8794 0.544543C-0.447622 -55.4185 55.0856 -100.827 118.56 -132.279C182.033 -163.731 251.802 -180.411 322.638 -181.07C393.474 -181.728 463.541 -166.347 527.588 -136.08C591.635 -105.813 648.003 -61.4436 692.467 -6.29737L693.661 -7.25971Z"/>
</mask>
<path d="M693.661 -7.25971C649.051 -62.5861 592.5 -107.1 528.243 -137.466C463.987 -167.832 393.691 -183.263 322.624 -182.603C251.556 -181.942 181.56 -165.208 117.879 -133.653C54.1976 -102.098 -1.51702 -56.5413 -45.0906 -0.39552L-43.8794 0.544543C-0.447622 -55.4185 55.0856 -100.827 118.56 -132.279C182.033 -163.731 251.802 -180.411 322.638 -181.07C393.474 -181.728 463.541 -166.347 527.588 -136.08C591.635 -105.813 648.003 -61.4436 692.467 -6.29737L693.661 -7.25971Z" stroke="#D9DFDF" stroke-opacity="0.5" stroke-width="3.08852" mask="url(#path-26-inside-25_0_1)"/>
<mask id="path-27-inside-26_0_1" fill="white">
<path d="M693.661 282.55C649.051 227.224 592.5 182.71 528.243 152.344C463.987 121.978 393.691 106.547 322.624 107.207C251.556 107.867 181.56 124.602 117.879 156.157C54.1976 187.712 -1.51702 233.269 -45.0906 289.414L-43.8794 290.354C-0.447622 234.391 55.0856 188.983 118.56 157.531C182.033 126.078 251.802 109.398 322.638 108.74C393.474 108.082 463.541 123.463 527.588 153.73C591.635 183.997 648.003 228.366 692.467 283.512L693.661 282.55Z"/>
</mask>
<path d="M693.661 282.55C649.051 227.224 592.5 182.71 528.243 152.344C463.987 121.978 393.691 106.547 322.624 107.207C251.556 107.867 181.56 124.602 117.879 156.157C54.1976 187.712 -1.51702 233.269 -45.0906 289.414L-43.8794 290.354C-0.447622 234.391 55.0856 188.983 118.56 157.531C182.033 126.078 251.802 109.398 322.638 108.74C393.474 108.082 463.541 123.463 527.588 153.73C591.635 183.997 648.003 228.366 692.467 283.512L693.661 282.55Z" stroke="#D9DFDF" stroke-opacity="0.5" stroke-width="3.08852" mask="url(#path-27-inside-26_0_1)"/>
<mask id="path-28-inside-27_0_1" fill="white">
<path d="M693.661 293.36C649.051 238.034 592.5 193.52 528.243 163.154C463.987 132.788 393.691 117.357 322.624 118.017C251.556 118.677 181.56 135.412 117.879 166.967C54.1976 198.522 -1.51702 244.079 -45.0906 300.224L-43.8794 301.164C-0.447622 245.201 55.0856 199.793 118.56 168.341C182.033 136.888 251.802 120.208 322.638 119.55C393.474 118.892 463.541 134.273 527.588 164.54C591.635 194.807 648.003 239.176 692.467 294.323L693.661 293.36Z"/>
</mask>
<path d="M693.661 293.36C649.051 238.034 592.5 193.52 528.243 163.154C463.987 132.788 393.691 117.357 322.624 118.017C251.556 118.677 181.56 135.412 117.879 166.967C54.1976 198.522 -1.51702 244.079 -45.0906 300.224L-43.8794 301.164C-0.447622 245.201 55.0856 199.793 118.56 168.341C182.033 136.888 251.802 120.208 322.638 119.55C393.474 118.892 463.541 134.273 527.588 164.54C591.635 194.807 648.003 239.176 692.467 294.323L693.661 293.36Z" stroke="#D9DFDF" stroke-opacity="0.5" stroke-width="3.08852" mask="url(#path-28-inside-27_0_1)"/>
<mask id="path-29-inside-28_0_1" fill="white">
<path d="M693.661 304.17C649.051 248.844 592.5 204.33 528.243 173.964C463.987 143.598 393.691 128.167 322.624 128.827C251.556 129.487 181.56 146.222 117.879 177.777C54.1976 209.331 -1.51702 254.888 -45.0906 311.034L-43.8794 311.974C-0.447622 256.011 55.0856 210.603 118.56 179.15C182.033 147.698 251.802 131.018 322.638 130.36C393.474 129.702 463.541 145.083 527.588 175.35C591.635 205.617 648.003 249.986 692.467 305.132L693.661 304.17Z"/>
</mask>
<path d="M693.661 304.17C649.051 248.844 592.5 204.33 528.243 173.964C463.987 143.598 393.691 128.167 322.624 128.827C251.556 129.487 181.56 146.222 117.879 177.777C54.1976 209.331 -1.51702 254.888 -45.0906 311.034L-43.8794 311.974C-0.447622 256.011 55.0856 210.603 118.56 179.15C182.033 147.698 251.802 131.018 322.638 130.36C393.474 129.702 463.541 145.083 527.588 175.35C591.635 205.617 648.003 249.986 692.467 305.132L693.661 304.17Z" stroke="#D9DFDF" stroke-opacity="0.5" stroke-width="3.08852" mask="url(#path-29-inside-28_0_1)"/>
<mask id="path-30-inside-29_0_1" fill="white">
<path d="M693.661 314.98C649.051 259.653 592.5 215.14 528.243 184.773C463.987 154.407 393.691 138.976 322.624 139.637C251.556 140.297 181.56 157.032 117.879 188.586C54.1976 220.141 -1.51702 265.698 -45.0906 321.844L-43.8794 322.784C-0.447622 266.821 55.0856 221.412 118.56 189.96C182.033 158.508 251.802 141.828 322.638 141.17C393.474 140.512 463.541 155.892 527.588 186.16C591.635 216.427 648.003 260.796 692.467 315.942L693.661 314.98Z"/>
</mask>
<path d="M693.661 314.98C649.051 259.653 592.5 215.14 528.243 184.773C463.987 154.407 393.691 138.976 322.624 139.637C251.556 140.297 181.56 157.032 117.879 188.586C54.1976 220.141 -1.51702 265.698 -45.0906 321.844L-43.8794 322.784C-0.447622 266.821 55.0856 221.412 118.56 189.96C182.033 158.508 251.802 141.828 322.638 141.17C393.474 140.512 463.541 155.892 527.588 186.16C591.635 216.427 648.003 260.796 692.467 315.942L693.661 314.98Z" stroke="#D9DFDF" stroke-opacity="0.5" stroke-width="3.08852" mask="url(#path-30-inside-29_0_1)"/>
<mask id="path-31-inside-30_0_1" fill="white">
<path d="M693.661 325.79C649.051 270.463 592.5 225.949 528.243 195.583C463.987 165.217 393.691 149.786 322.624 150.447C251.556 151.107 181.56 167.841 117.879 199.396C54.1976 230.951 -1.51702 276.508 -45.0906 332.654L-43.8794 333.594C-0.447622 277.631 55.0856 232.222 118.56 200.77C182.033 169.318 251.802 152.638 322.638 151.98C393.474 151.322 463.541 166.702 527.588 196.97C591.635 227.237 648.003 271.606 692.467 326.752L693.661 325.79Z"/>
</mask>
<path d="M693.661 325.79C649.051 270.463 592.5 225.949 528.243 195.583C463.987 165.217 393.691 149.786 322.624 150.447C251.556 151.107 181.56 167.841 117.879 199.396C54.1976 230.951 -1.51702 276.508 -45.0906 332.654L-43.8794 333.594C-0.447622 277.631 55.0856 232.222 118.56 200.77C182.033 169.318 251.802 152.638 322.638 151.98C393.474 151.322 463.541 166.702 527.588 196.97C591.635 227.237 648.003 271.606 692.467 326.752L693.661 325.79Z" stroke="#D9DFDF" stroke-opacity="0.5" stroke-width="3.08852" mask="url(#path-31-inside-30_0_1)"/>
<mask id="path-32-inside-31_0_1" fill="white">
<path d="M693.661 336.599C649.051 281.273 592.5 236.759 528.243 206.393C463.987 176.027 393.691 160.596 322.624 161.256C251.556 161.917 181.56 178.651 117.879 210.206C54.1976 241.761 -1.51702 287.318 -45.0906 343.464L-43.8794 344.404C-0.447622 288.441 55.0856 243.032 118.56 211.58C182.033 180.128 251.802 163.448 322.638 162.79C393.474 162.131 463.541 177.512 527.588 207.779C591.635 238.047 648.003 282.416 692.467 337.562L693.661 336.599Z"/>
</mask>
<path d="M693.661 336.599C649.051 281.273 592.5 236.759 528.243 206.393C463.987 176.027 393.691 160.596 322.624 161.256C251.556 161.917 181.56 178.651 117.879 210.206C54.1976 241.761 -1.51702 287.318 -45.0906 343.464L-43.8794 344.404C-0.447622 288.441 55.0856 243.032 118.56 211.58C182.033 180.128 251.802 163.448 322.638 162.79C393.474 162.131 463.541 177.512 527.588 207.779C591.635 238.047 648.003 282.416 692.467 337.562L693.661 336.599Z" stroke="#D9DFDF" stroke-opacity="0.5" stroke-width="3.08852" mask="url(#path-32-inside-31_0_1)"/>
<mask id="path-33-inside-32_0_1" fill="white">
<path d="M693.661 347.409C649.051 292.083 592.5 247.569 528.243 217.203C463.987 186.837 393.691 171.406 322.624 172.066C251.556 172.727 181.56 189.461 117.879 221.016C54.1976 252.571 -1.51702 298.128 -45.0906 354.273L-43.8794 355.213C-0.447622 299.25 55.0856 253.842 118.56 222.39C182.033 190.938 251.802 174.258 322.638 173.599C393.474 172.941 463.541 188.322 527.588 218.589C591.635 248.856 648.003 293.225 692.467 348.372L693.661 347.409Z"/>
</mask>
<path d="M693.661 347.409C649.051 292.083 592.5 247.569 528.243 217.203C463.987 186.837 393.691 171.406 322.624 172.066C251.556 172.727 181.56 189.461 117.879 221.016C54.1976 252.571 -1.51702 298.128 -45.0906 354.273L-43.8794 355.213C-0.447622 299.25 55.0856 253.842 118.56 222.39C182.033 190.938 251.802 174.258 322.638 173.599C393.474 172.941 463.541 188.322 527.588 218.589C591.635 248.856 648.003 293.225 692.467 348.372L693.661 347.409Z" stroke="#D9DFDF" stroke-opacity="0.5" stroke-width="3.08852" mask="url(#path-33-inside-32_0_1)"/>
<mask id="path-34-inside-33_0_1" fill="white">
<path d="M693.661 358.219C649.051 302.893 592.5 258.379 528.243 228.013C463.987 197.647 393.691 182.216 322.624 182.876C251.556 183.536 181.56 200.271 117.879 231.826C54.1976 263.381 -1.51702 308.937 -45.0906 365.083L-43.8794 366.023C-0.447622 310.06 55.0856 264.652 118.56 233.2C182.033 201.747 251.802 185.067 322.638 184.409C393.474 183.751 463.541 199.132 527.588 229.399C591.635 259.666 648.003 304.035 692.467 359.181L693.661 358.219Z"/>
</mask>
<path d="M693.661 358.219C649.051 302.893 592.5 258.379 528.243 228.013C463.987 197.647 393.691 182.216 322.624 182.876C251.556 183.536 181.56 200.271 117.879 231.826C54.1976 263.381 -1.51702 308.937 -45.0906 365.083L-43.8794 366.023C-0.447622 310.06 55.0856 264.652 118.56 233.2C182.033 201.747 251.802 185.067 322.638 184.409C393.474 183.751 463.541 199.132 527.588 229.399C591.635 259.666 648.003 304.035 692.467 359.181L693.661 358.219Z" stroke="#D9DFDF" stroke-opacity="0.5" stroke-width="3.08852" mask="url(#path-34-inside-33_0_1)"/>
<mask id="path-35-inside-34_0_1" fill="white">
<path d="M693.661 369.029C649.051 313.702 592.5 269.189 528.243 238.823C463.987 208.456 393.691 193.025 322.624 193.686C251.556 194.346 181.56 211.081 117.879 242.635C54.1976 274.19 -1.51702 319.747 -45.0906 375.893L-43.8794 376.833C-0.447622 320.87 55.0856 275.461 118.56 244.009C182.033 212.557 251.802 195.877 322.638 195.219C393.474 194.561 463.541 209.941 527.588 240.209C591.635 270.476 648.003 314.845 692.467 369.991L693.661 369.029Z"/>
</mask>
<path d="M693.661 369.029C649.051 313.702 592.5 269.189 528.243 238.823C463.987 208.456 393.691 193.025 322.624 193.686C251.556 194.346 181.56 211.081 117.879 242.635C54.1976 274.19 -1.51702 319.747 -45.0906 375.893L-43.8794 376.833C-0.447622 320.87 55.0856 275.461 118.56 244.009C182.033 212.557 251.802 195.877 322.638 195.219C393.474 194.561 463.541 209.941 527.588 240.209C591.635 270.476 648.003 314.845 692.467 369.991L693.661 369.029Z" stroke="#D9DFDF" stroke-opacity="0.5" stroke-width="3.08852" mask="url(#path-35-inside-34_0_1)"/>
<mask id="path-36-inside-35_0_1" fill="white">
<path d="M693.661 379.839C649.051 324.512 592.5 279.998 528.243 249.632C463.987 219.266 393.691 203.835 322.624 204.496C251.556 205.156 181.56 221.89 117.879 253.445C54.1976 285 -1.51702 330.557 -45.0906 386.703L-43.8794 387.643C-0.447622 331.68 55.0856 286.271 118.56 254.819C182.033 223.367 251.802 206.687 322.638 206.029C393.474 205.371 463.541 220.751 527.588 251.019C591.635 281.286 648.003 325.655 692.467 380.801L693.661 379.839Z"/>
</mask>
<path d="M693.661 379.839C649.051 324.512 592.5 279.998 528.243 249.632C463.987 219.266 393.691 203.835 322.624 204.496C251.556 205.156 181.56 221.89 117.879 253.445C54.1976 285 -1.51702 330.557 -45.0906 386.703L-43.8794 387.643C-0.447622 331.68 55.0856 286.271 118.56 254.819C182.033 223.367 251.802 206.687 322.638 206.029C393.474 205.371 463.541 220.751 527.588 251.019C591.635 281.286 648.003 325.655 692.467 380.801L693.661 379.839Z" stroke="#D9DFDF" stroke-opacity="0.5" stroke-width="3.08852" mask="url(#path-36-inside-35_0_1)"/>
<mask id="path-37-inside-36_0_1" fill="white">
<path d="M693.661 390.648C649.051 335.322 592.5 290.808 528.243 260.442C463.987 230.076 393.691 214.645 322.624 215.305C251.556 215.966 181.56 232.7 117.879 264.255C54.1976 295.81 -1.51702 341.367 -45.0906 397.513L-43.8794 398.453C-0.447622 342.49 55.0856 297.081 118.56 265.629C182.033 234.177 251.802 217.497 322.638 216.839C393.474 216.18 463.541 231.561 527.588 261.828C591.635 292.096 648.003 336.465 692.467 391.611L693.661 390.648Z"/>
</mask>
<path d="M693.661 390.648C649.051 335.322 592.5 290.808 528.243 260.442C463.987 230.076 393.691 214.645 322.624 215.305C251.556 215.966 181.56 232.7 117.879 264.255C54.1976 295.81 -1.51702 341.367 -45.0906 397.513L-43.8794 398.453C-0.447622 342.49 55.0856 297.081 118.56 265.629C182.033 234.177 251.802 217.497 322.638 216.839C393.474 216.18 463.541 231.561 527.588 261.828C591.635 292.096 648.003 336.465 692.467 391.611L693.661 390.648Z" stroke="#D9DFDF" stroke-opacity="0.5" stroke-width="3.08852" mask="url(#path-37-inside-36_0_1)"/>
<mask id="path-38-inside-37_0_1" fill="white">
<path d="M693.661 401.458C649.051 346.132 592.5 301.618 528.243 271.252C463.987 240.886 393.691 225.455 322.624 226.115C251.556 226.776 181.56 243.51 117.879 275.065C54.1976 306.62 -1.51702 352.177 -45.0906 408.322L-43.8794 409.263C-0.447622 353.3 55.0856 307.891 118.56 276.439C182.033 244.987 251.802 228.307 322.638 227.648C393.474 226.99 463.541 242.371 527.588 272.638C591.635 302.905 648.003 347.274 692.467 402.421L693.661 401.458Z"/>
</mask>
<path d="M693.661 401.458C649.051 346.132 592.5 301.618 528.243 271.252C463.987 240.886 393.691 225.455 322.624 226.115C251.556 226.776 181.56 243.51 117.879 275.065C54.1976 306.62 -1.51702 352.177 -45.0906 408.322L-43.8794 409.263C-0.447622 353.3 55.0856 307.891 118.56 276.439C182.033 244.987 251.802 228.307 322.638 227.648C393.474 226.99 463.541 242.371 527.588 272.638C591.635 302.905 648.003 347.274 692.467 402.421L693.661 401.458Z" stroke="#D9DFDF" stroke-opacity="0.5" stroke-width="3.08852" mask="url(#path-38-inside-37_0_1)"/>
<mask id="path-39-inside-38_0_1" fill="white">
<path d="M693.661 412.268C649.051 356.942 592.5 312.428 528.243 282.062C463.987 251.696 393.691 236.265 322.624 236.925C251.556 237.586 181.56 254.32 117.879 285.875C54.1976 317.43 -1.51702 362.987 -45.0906 419.133L-43.8794 420.073C-0.447622 364.11 55.0856 318.701 118.56 287.249C182.033 255.797 251.802 239.117 322.638 238.459C393.474 237.8 463.541 253.181 527.588 283.448C591.635 313.715 648.003 358.084 692.467 413.231L693.661 412.268Z"/>
</mask>
<path d="M693.661 412.268C649.051 356.942 592.5 312.428 528.243 282.062C463.987 251.696 393.691 236.265 322.624 236.925C251.556 237.586 181.56 254.32 117.879 285.875C54.1976 317.43 -1.51702 362.987 -45.0906 419.133L-43.8794 420.073C-0.447622 364.11 55.0856 318.701 118.56 287.249C182.033 255.797 251.802 239.117 322.638 238.459C393.474 237.8 463.541 253.181 527.588 283.448C591.635 313.715 648.003 358.084 692.467 413.231L693.661 412.268Z" stroke="#D9DFDF" stroke-opacity="0.5" stroke-width="3.08852" mask="url(#path-39-inside-38_0_1)"/>
<mask id="path-40-inside-39_0_1" fill="white">
<path d="M693.661 423.078C649.051 367.752 592.5 323.238 528.243 292.872C463.987 262.506 393.691 247.075 322.624 247.735C251.556 248.395 181.56 265.13 117.879 296.685C54.1976 328.24 -1.51702 373.797 -45.0906 429.942L-43.8794 430.882C-0.447622 374.919 55.0856 329.511 118.56 298.059C182.033 266.607 251.802 249.926 322.638 249.268C393.474 248.61 463.541 263.991 527.588 294.258C591.635 324.525 648.003 368.894 692.467 424.041L693.661 423.078Z"/>
</mask>
<path d="M693.661 423.078C649.051 367.752 592.5 323.238 528.243 292.872C463.987 262.506 393.691 247.075 322.624 247.735C251.556 248.395 181.56 265.13 117.879 296.685C54.1976 328.24 -1.51702 373.797 -45.0906 429.942L-43.8794 430.882C-0.447622 374.919 55.0856 329.511 118.56 298.059C182.033 266.607 251.802 249.926 322.638 249.268C393.474 248.61 463.541 263.991 527.588 294.258C591.635 324.525 648.003 368.894 692.467 424.041L693.661 423.078Z" stroke="#D9DFDF" stroke-opacity="0.5" stroke-width="3.08852" mask="url(#path-40-inside-39_0_1)"/>
<mask id="path-41-inside-40_0_1" fill="white">
<path d="M693.661 433.888C649.051 378.562 592.5 334.048 528.243 303.682C463.987 273.316 393.691 257.885 322.624 258.545C251.556 259.205 181.56 275.94 117.879 307.495C54.1976 339.049 -1.51702 384.606 -45.0906 440.752L-43.8794 441.692C-0.447622 385.729 55.0856 340.321 118.56 308.868C182.033 277.416 251.802 260.736 322.638 260.078C393.474 259.42 463.541 274.801 527.588 305.068C591.635 335.335 648.003 379.704 692.467 434.85L693.661 433.888Z"/>
</mask>
<path d="M693.661 433.888C649.051 378.562 592.5 334.048 528.243 303.682C463.987 273.316 393.691 257.885 322.624 258.545C251.556 259.205 181.56 275.94 117.879 307.495C54.1976 339.049 -1.51702 384.606 -45.0906 440.752L-43.8794 441.692C-0.447622 385.729 55.0856 340.321 118.56 308.868C182.033 277.416 251.802 260.736 322.638 260.078C393.474 259.42 463.541 274.801 527.588 305.068C591.635 335.335 648.003 379.704 692.467 434.85L693.661 433.888Z" stroke="#D9DFDF" stroke-opacity="0.5" stroke-width="3.08852" mask="url(#path-41-inside-40_0_1)"/>
<mask id="path-42-inside-41_0_1" fill="white">
<path d="M693.661 444.698C649.051 389.371 592.5 344.858 528.243 314.491C463.987 284.125 393.691 268.694 322.624 269.355C251.556 270.015 181.56 286.75 117.879 318.304C54.1976 349.859 -1.51702 395.416 -45.0906 451.562L-43.8794 452.502C-0.447622 396.539 55.0856 351.13 118.56 319.678C182.033 288.226 251.802 271.546 322.638 270.888C393.474 270.23 463.541 285.61 527.588 315.878C591.635 346.145 648.003 390.514 692.467 445.66L693.661 444.698Z"/>
</mask>
<path d="M693.661 444.698C649.051 389.371 592.5 344.858 528.243 314.491C463.987 284.125 393.691 268.694 322.624 269.355C251.556 270.015 181.56 286.75 117.879 318.304C54.1976 349.859 -1.51702 395.416 -45.0906 451.562L-43.8794 452.502C-0.447622 396.539 55.0856 351.13 118.56 319.678C182.033 288.226 251.802 271.546 322.638 270.888C393.474 270.23 463.541 285.61 527.588 315.878C591.635 346.145 648.003 390.514 692.467 445.66L693.661 444.698Z" stroke="#D9DFDF" stroke-opacity="0.5" stroke-width="3.08852" mask="url(#path-42-inside-41_0_1)"/>
<mask id="path-43-inside-42_0_1" fill="white">
<path d="M693.661 455.508C649.051 400.181 592.5 355.667 528.243 325.301C463.987 294.935 393.691 279.504 322.624 280.165C251.556 280.825 181.56 297.559 117.879 329.114C54.1976 360.669 -1.51702 406.226 -45.0906 462.372L-43.8794 463.312C-0.447622 407.349 55.0856 361.94 118.56 330.488C182.033 299.036 251.802 282.356 322.638 281.698C393.474 281.04 463.541 296.42 527.588 326.688C591.635 356.955 648.003 401.324 692.467 456.47L693.661 455.508Z"/>
</mask>
<path d="M693.661 455.508C649.051 400.181 592.5 355.667 528.243 325.301C463.987 294.935 393.691 279.504 322.624 280.165C251.556 280.825 181.56 297.559 117.879 329.114C54.1976 360.669 -1.51702 406.226 -45.0906 462.372L-43.8794 463.312C-0.447622 407.349 55.0856 361.94 118.56 330.488C182.033 299.036 251.802 282.356 322.638 281.698C393.474 281.04 463.541 296.42 527.588 326.688C591.635 356.955 648.003 401.324 692.467 456.47L693.661 455.508Z" stroke="#D9DFDF" stroke-opacity="0.5" stroke-width="3.08852" mask="url(#path-43-inside-42_0_1)"/>
<mask id="path-44-inside-43_0_1" fill="white">
<path d="M693.661 466.317C649.051 410.991 592.5 366.477 528.243 336.111C463.987 305.745 393.691 290.314 322.624 290.974C251.556 291.635 181.56 308.369 117.879 339.924C54.1976 371.479 -1.51702 417.036 -45.0906 473.182L-43.8794 474.122C-0.447622 418.159 55.0856 372.75 118.56 341.298C182.033 309.846 251.802 293.166 322.638 292.508C393.474 291.849 463.541 307.23 527.588 337.497C591.635 367.765 648.003 412.134 692.467 467.28L693.661 466.317Z"/>
</mask>
<path d="M693.661 466.317C649.051 410.991 592.5 366.477 528.243 336.111C463.987 305.745 393.691 290.314 322.624 290.974C251.556 291.635 181.56 308.369 117.879 339.924C54.1976 371.479 -1.51702 417.036 -45.0906 473.182L-43.8794 474.122C-0.447622 418.159 55.0856 372.75 118.56 341.298C182.033 309.846 251.802 293.166 322.638 292.508C393.474 291.849 463.541 307.23 527.588 337.497C591.635 367.765 648.003 412.134 692.467 467.28L693.661 466.317Z" stroke="#D9DFDF" stroke-opacity="0.5" stroke-width="3.08852" mask="url(#path-44-inside-43_0_1)"/>
<mask id="path-45-inside-44_0_1" fill="white">
<path d="M693.661 477.127C649.051 421.801 592.5 377.287 528.243 346.921C463.987 316.555 393.691 301.124 322.624 301.784C251.556 302.445 181.56 319.179 117.879 350.734C54.1976 382.289 -1.51702 427.846 -45.0906 483.991L-43.8794 484.932C-0.447622 428.968 55.0856 383.56 118.56 352.108C182.033 320.656 251.802 303.976 322.638 303.317C393.474 302.659 463.541 318.04 527.588 348.307C591.635 378.574 648.003 422.943 692.467 478.09L693.661 477.127Z"/>
</mask>
<path d="M693.661 477.127C649.051 421.801 592.5 377.287 528.243 346.921C463.987 316.555 393.691 301.124 322.624 301.784C251.556 302.445 181.56 319.179 117.879 350.734C54.1976 382.289 -1.51702 427.846 -45.0906 483.991L-43.8794 484.932C-0.447622 428.968 55.0856 383.56 118.56 352.108C182.033 320.656 251.802 303.976 322.638 303.317C393.474 302.659 463.541 318.04 527.588 348.307C591.635 378.574 648.003 422.943 692.467 478.09L693.661 477.127Z" stroke="#D9DFDF" stroke-opacity="0.5" stroke-width="3.08852" mask="url(#path-45-inside-44_0_1)"/>
<mask id="path-46-inside-45_0_1" fill="white">
<path d="M693.661 487.937C649.051 432.611 592.5 388.097 528.243 357.731C463.987 327.365 393.691 311.934 322.624 312.594C251.556 313.254 181.56 329.989 117.879 361.544C54.1976 393.099 -1.51702 438.656 -45.0906 494.801L-43.8794 495.741C-0.447622 439.778 55.0856 394.37 118.56 362.918C182.033 331.465 251.802 314.785 322.638 314.127C393.474 313.469 463.541 328.85 527.588 359.117C591.635 389.384 648.003 433.753 692.467 488.899L693.661 487.937Z"/>
</mask>
<path d="M693.661 487.937C649.051 432.611 592.5 388.097 528.243 357.731C463.987 327.365 393.691 311.934 322.624 312.594C251.556 313.254 181.56 329.989 117.879 361.544C54.1976 393.099 -1.51702 438.656 -45.0906 494.801L-43.8794 495.741C-0.447622 439.778 55.0856 394.37 118.56 362.918C182.033 331.465 251.802 314.785 322.638 314.127C393.474 313.469 463.541 328.85 527.588 359.117C591.635 389.384 648.003 433.753 692.467 488.899L693.661 487.937Z" stroke="#D9DFDF" stroke-opacity="0.5" stroke-width="3.08852" mask="url(#path-46-inside-45_0_1)"/>
<mask id="path-47-inside-46_0_1" fill="white">
<path d="M693.661 498.747C649.051 443.42 592.5 398.907 528.243 368.541C463.987 338.174 393.691 322.743 322.624 323.404C251.556 324.064 181.56 340.799 117.879 372.354C54.1976 403.908 -1.51702 449.465 -45.0906 505.611L-43.8794 506.551C-0.447622 450.588 55.0856 405.18 118.56 373.727C182.033 342.275 251.802 325.595 322.638 324.937C393.474 324.279 463.541 339.66 527.588 369.927C591.635 400.194 648.003 444.563 692.467 499.709L693.661 498.747Z"/>
</mask>
<path d="M693.661 498.747C649.051 443.42 592.5 398.907 528.243 368.541C463.987 338.174 393.691 322.743 322.624 323.404C251.556 324.064 181.56 340.799 117.879 372.354C54.1976 403.908 -1.51702 449.465 -45.0906 505.611L-43.8794 506.551C-0.447622 450.588 55.0856 405.18 118.56 373.727C182.033 342.275 251.802 325.595 322.638 324.937C393.474 324.279 463.541 339.66 527.588 369.927C591.635 400.194 648.003 444.563 692.467 499.709L693.661 498.747Z" stroke="#D9DFDF" stroke-opacity="0.5" stroke-width="3.08852" mask="url(#path-47-inside-46_0_1)"/>
<mask id="path-48-inside-47_0_1" fill="white">
<path d="M693.661 509.557C649.051 454.23 592.5 409.716 528.243 379.35C463.987 348.984 393.691 333.553 322.624 334.214C251.556 334.874 181.56 351.608 117.879 383.163C54.1976 414.718 -1.51702 460.275 -45.0906 516.421L-43.8794 517.361C-0.447622 461.398 55.0856 415.989 118.56 384.537C182.033 353.085 251.802 336.405 322.638 335.747C393.474 335.089 463.541 350.469 527.588 380.737C591.635 411.004 648.003 455.373 692.467 510.519L693.661 509.557Z"/>
</mask>
<path d="M693.661 509.557C649.051 454.23 592.5 409.716 528.243 379.35C463.987 348.984 393.691 333.553 322.624 334.214C251.556 334.874 181.56 351.608 117.879 383.163C54.1976 414.718 -1.51702 460.275 -45.0906 516.421L-43.8794 517.361C-0.447622 461.398 55.0856 415.989 118.56 384.537C182.033 353.085 251.802 336.405 322.638 335.747C393.474 335.089 463.541 350.469 527.588 380.737C591.635 411.004 648.003 455.373 692.467 510.519L693.661 509.557Z" stroke="#D9DFDF" stroke-opacity="0.5" stroke-width="3.08852" mask="url(#path-48-inside-47_0_1)"/>
<mask id="path-49-inside-48_0_1" fill="white">
<path d="M693.661 520.367C649.051 465.04 592.5 420.526 528.243 390.16C463.987 359.794 393.691 344.363 322.624 345.023C251.556 345.684 181.56 362.418 117.879 393.973C54.1976 425.528 -1.51702 471.085 -45.0906 527.231L-43.8794 528.171C-0.447622 472.208 55.0856 426.799 118.56 395.347C182.033 363.895 251.802 347.215 322.638 346.557C393.474 345.898 463.541 361.279 527.588 391.546C591.635 421.814 648.003 466.183 692.467 521.329L693.661 520.367Z"/>
</mask>
<path d="M693.661 520.367C649.051 465.04 592.5 420.526 528.243 390.16C463.987 359.794 393.691 344.363 322.624 345.023C251.556 345.684 181.56 362.418 117.879 393.973C54.1976 425.528 -1.51702 471.085 -45.0906 527.231L-43.8794 528.171C-0.447622 472.208 55.0856 426.799 118.56 395.347C182.033 363.895 251.802 347.215 322.638 346.557C393.474 345.898 463.541 361.279 527.588 391.546C591.635 421.814 648.003 466.183 692.467 521.329L693.661 520.367Z" stroke="#D9DFDF" stroke-opacity="0.5" stroke-width="3.08852" mask="url(#path-49-inside-48_0_1)"/>
<mask id="path-50-inside-49_0_1" fill="white">
<path d="M693.661 531.177C649.051 475.85 592.5 431.336 528.243 400.97C463.987 370.604 393.691 355.173 322.624 355.834C251.556 356.494 181.56 373.228 117.879 404.783C54.1976 436.338 -1.51702 481.895 -45.0906 538.041L-43.8794 538.981C-0.447622 483.018 55.0856 437.609 118.56 406.157C182.033 374.705 251.802 358.025 322.638 357.367C393.474 356.709 463.541 372.089 527.588 402.356C591.635 432.624 648.003 476.993 692.467 532.139L693.661 531.177Z"/>
</mask>
<path d="M693.661 531.177C649.051 475.85 592.5 431.336 528.243 400.97C463.987 370.604 393.691 355.173 322.624 355.834C251.556 356.494 181.56 373.228 117.879 404.783C54.1976 436.338 -1.51702 481.895 -45.0906 538.041L-43.8794 538.981C-0.447622 483.018 55.0856 437.609 118.56 406.157C182.033 374.705 251.802 358.025 322.638 357.367C393.474 356.709 463.541 372.089 527.588 402.356C591.635 432.624 648.003 476.993 692.467 532.139L693.661 531.177Z" stroke="#D9DFDF" stroke-opacity="0.5" stroke-width="3.08852" mask="url(#path-50-inside-49_0_1)"/>
<mask id="path-51-inside-50_0_1" fill="white">
<path d="M693.661 541.986C649.051 486.66 592.5 442.146 528.243 411.78C463.987 381.414 393.691 365.983 322.624 366.643C251.556 367.304 181.56 384.038 117.879 415.593C54.1976 447.148 -1.51702 492.705 -45.0906 548.851L-43.8794 549.791C-0.447622 493.828 55.0856 448.419 118.56 416.967C182.033 385.515 251.802 368.835 322.638 368.177C393.474 367.518 463.541 382.899 527.588 413.166C591.635 443.434 648.003 487.802 692.467 542.949L693.661 541.986Z"/>
</mask>
<path d="M693.661 541.986C649.051 486.66 592.5 442.146 528.243 411.78C463.987 381.414 393.691 365.983 322.624 366.643C251.556 367.304 181.56 384.038 117.879 415.593C54.1976 447.148 -1.51702 492.705 -45.0906 548.851L-43.8794 549.791C-0.447622 493.828 55.0856 448.419 118.56 416.967C182.033 385.515 251.802 368.835 322.638 368.177C393.474 367.518 463.541 382.899 527.588 413.166C591.635 443.434 648.003 487.802 692.467 542.949L693.661 541.986Z" stroke="#D9DFDF" stroke-opacity="0.5" stroke-width="3.08852" mask="url(#path-51-inside-50_0_1)"/>
<g opacity="0.85" filter="url(#filter0_f_0_1)">
<rect x="-43" y="327" width="714" height="148" fill="#EBF4F6"/>
</g>
</g>
<path d="M403 180.497L527.963 180.963C533.5 180.983 538 176.5 538 170.963V90" stroke="url(#paint0_linear_0_1)" stroke-width="2"/>
<path d="M326 91V55C326 49.4772 321.523 45 316 45H276.5H227" stroke="#D9DFDF" stroke-width="2"/>
<path d="M135 271.5L135 231C135 225.477 139.477 221 145 221L184.5 221L234 221" stroke="#D9DFDF" stroke-width="2"/>
<path d="M326 59V55C326 49.4772 321.523 45 316 45H314.667H309" stroke="url(#paint1_linear_0_1)" stroke-width="2"/>
<g filter="url(#filter1_d_0_1)">
<path d="M319.315 92.4072C323.766 88.6961 330.234 88.6961 334.685 92.4072L337.425 94.692C340.758 97.4707 345.331 98.2339 349.385 96.6878L352.719 95.4166C358.134 93.3518 364.251 95.4517 367.255 100.407L369.105 103.458C371.355 107.168 375.433 109.375 379.769 109.229L383.335 109.109C389.127 108.914 394.231 112.887 395.464 118.549L396.223 122.035C397.146 126.275 400.286 129.686 404.435 130.956L407.847 132.001C413.388 133.697 416.926 139.111 416.253 144.867L415.839 148.411C415.336 152.721 417.198 156.967 420.71 159.515L423.598 161.611C428.288 165.015 429.875 171.284 427.371 176.51L425.828 179.727C423.953 183.64 424.336 188.261 426.83 191.811L428.88 194.731C432.211 199.473 431.677 205.918 427.611 210.048L425.108 212.59C422.063 215.682 420.925 220.176 422.131 224.345L423.123 227.772C424.733 233.339 422.136 239.261 416.949 241.847L413.756 243.438C409.873 245.374 407.337 249.256 407.124 253.59L406.949 257.153C406.665 262.941 402.285 267.699 396.54 268.461L393.003 268.929C388.701 269.499 385.042 272.347 383.434 276.377L382.111 279.691C379.963 285.073 374.275 288.151 368.594 287.006L365.097 286.3C360.843 285.443 356.458 286.948 353.628 290.238L351.301 292.942C347.522 297.335 341.143 298.4 336.142 295.472L333.063 293.669C329.318 291.477 324.682 291.477 320.937 293.669L317.858 295.472C312.857 298.4 306.478 297.335 302.699 292.942L300.372 290.238C297.542 286.948 293.157 285.443 288.903 286.3L285.406 287.006C279.725 288.151 274.037 285.073 271.889 279.691L270.566 276.377C268.958 272.347 265.299 269.499 260.997 268.929L257.46 268.461C251.715 267.699 247.335 262.941 247.051 257.153L246.876 253.59C246.663 249.256 244.127 245.374 240.244 243.438L237.051 241.847C231.864 239.261 229.267 233.339 230.877 227.772L231.869 224.345C233.075 220.176 231.937 215.682 228.892 212.59L226.389 210.048C222.323 205.918 221.789 199.473 225.12 194.731L227.17 191.811C229.664 188.261 230.047 183.64 228.172 179.727L226.629 176.51C224.125 171.284 225.712 165.015 230.402 161.611L233.29 159.515C236.802 156.967 238.664 152.721 238.161 148.411L237.747 144.867C237.074 139.111 240.612 133.697 246.153 132.001L249.565 130.956C253.714 129.686 256.854 126.275 257.777 122.035L258.536 118.549C259.769 112.887 264.873 108.914 270.665 109.109L274.231 109.229C278.567 109.375 282.645 107.168 284.895 103.458L286.745 100.407C289.749 95.4517 295.866 93.3518 301.281 95.4166L304.615 96.6878C308.669 98.2339 313.242 97.4707 316.575 94.692L319.315 92.4072Z" fill="white"/>
<path d="M319.636 92.7912C323.901 89.2347 330.099 89.2347 334.364 92.7912L337.105 95.0761C340.576 97.9705 345.34 98.7655 349.563 97.155L352.897 95.8838C358.086 93.905 363.948 95.9174 366.828 100.666L368.678 103.717C371.021 107.582 375.269 109.881 379.786 109.729L383.352 109.609C388.903 109.422 393.794 113.229 394.975 118.655L395.734 122.142C396.696 126.558 399.967 130.111 404.289 131.434L407.701 132.479C413.011 134.105 416.401 139.293 415.757 144.809L415.343 148.353C414.818 152.843 416.758 157.265 420.416 159.92L423.304 162.016C427.799 165.278 429.32 171.286 426.92 176.294L425.377 179.511C423.424 183.587 423.823 188.4 426.421 192.099L428.471 195.019C431.663 199.563 431.152 205.74 427.255 209.697L424.752 212.239C421.58 215.46 420.395 220.142 421.651 224.484L422.643 227.911C424.186 233.246 421.696 238.922 416.726 241.399L413.533 242.991C409.488 245.007 406.846 249.051 406.624 253.565L406.449 257.129C406.177 262.676 401.98 267.235 396.474 267.965L392.937 268.434C388.456 269.027 384.645 271.994 382.969 276.192L381.647 279.505C379.588 284.663 374.137 287.613 368.693 286.516L365.196 285.81C360.765 284.917 356.197 286.485 353.249 289.912L350.922 292.616C347.3 296.826 341.187 297.846 336.394 295.041L333.315 293.238C329.415 290.954 324.585 290.954 320.685 293.238L317.606 295.041C312.813 297.846 306.7 296.826 303.078 292.616L300.751 289.912C297.803 286.485 293.235 284.917 288.804 285.81L285.307 286.516C279.863 287.613 274.412 284.663 272.353 279.505L271.031 276.192C269.355 271.994 265.544 269.027 261.063 268.434L257.526 267.965C252.02 267.235 247.823 262.676 247.551 257.129L247.376 253.565C247.154 249.051 244.512 245.007 240.467 242.991L237.274 241.399C232.304 238.922 229.814 233.246 231.357 227.911L232.349 224.484C233.605 220.142 232.42 215.46 229.248 212.239L226.745 209.697C222.848 205.74 222.337 199.563 225.529 195.019L227.579 192.099C230.177 188.4 230.576 183.587 228.623 179.511L227.08 176.294C224.68 171.286 226.201 165.278 230.696 162.016L233.584 159.92C237.242 157.265 239.182 152.842 238.657 148.353L238.243 144.809C237.599 139.293 240.989 134.105 246.299 132.479L249.711 131.434C254.033 130.111 257.304 126.558 258.266 122.142L259.025 118.655C260.206 113.229 265.097 109.422 270.648 109.609L274.214 109.729C278.731 109.881 282.979 107.582 285.322 103.717L287.172 100.666C290.052 95.9174 295.914 93.905 301.103 95.8838L304.437 97.155C308.66 98.7655 313.424 97.9705 316.895 95.0761L319.636 92.7912Z" stroke="#03272C" stroke-opacity="0.15"/>
</g>
<path d="M319.315 100.407C323.766 96.6961 330.234 96.6961 334.685 100.407L336.253 101.715C339.586 104.494 344.159 105.257 348.213 103.711L350.121 102.983C355.536 100.918 361.653 103.018 364.658 107.973L365.717 109.72C367.966 113.43 372.044 115.637 376.381 115.491L378.422 115.422C384.214 115.227 389.317 119.2 390.55 124.862L390.985 126.857C391.908 131.097 395.048 134.508 399.197 135.779L401.15 136.376C406.691 138.073 410.228 143.487 409.556 149.243L409.319 151.271C408.815 155.581 410.678 159.827 414.19 162.375L415.842 163.575C420.533 166.979 422.12 173.248 419.615 178.474L418.733 180.315C416.857 184.228 417.24 188.849 419.734 192.399L420.908 194.07C424.239 198.813 423.705 205.258 419.639 209.387L418.206 210.842C415.161 213.934 414.023 218.429 415.229 222.597L415.797 224.558C417.407 230.125 414.809 236.048 409.623 238.633L407.795 239.544C403.912 241.48 401.376 245.361 401.163 249.695L401.063 251.735C400.779 257.523 396.399 262.281 390.654 263.042L388.629 263.311C384.328 263.881 380.669 266.728 379.061 270.758L378.304 272.655C376.155 278.037 370.468 281.115 364.787 279.97L362.785 279.566C358.532 278.709 354.146 280.214 351.316 283.503L349.985 285.051C346.205 289.445 339.826 290.509 334.825 287.581L333.063 286.549C329.318 284.357 324.682 284.357 320.937 286.549L319.175 287.581C314.174 290.509 307.795 289.445 304.015 285.051L302.684 283.503C299.854 280.214 295.468 278.709 291.215 279.566L289.213 279.97C283.532 281.115 277.845 278.037 275.696 272.655L274.939 270.758C273.331 266.728 269.672 263.881 265.371 263.311L263.346 263.042C257.601 262.281 253.221 257.523 252.937 251.735L252.837 249.695C252.624 245.361 250.088 241.48 246.205 239.544L244.377 238.633C239.191 236.048 236.593 230.125 238.203 224.558L238.771 222.597C239.977 218.429 238.839 213.934 235.794 210.842L234.361 209.387C230.295 205.258 229.761 198.813 233.092 194.07L234.266 192.399C236.76 188.849 237.143 184.228 235.267 180.315L234.385 178.474C231.88 173.248 233.467 166.979 238.158 163.575L239.81 162.375C243.322 159.827 245.185 155.581 244.681 151.271L244.444 149.243C243.772 143.487 247.309 138.073 252.85 136.376L254.803 135.779C258.952 134.508 262.092 131.097 263.015 126.857L263.45 124.862C264.683 119.2 269.786 115.227 275.578 115.422L277.619 115.491C281.956 115.637 286.034 113.43 288.283 109.72L289.342 107.973C292.347 103.018 298.464 100.918 303.879 102.983L305.787 103.711C309.841 105.257 314.414 104.494 317.747 101.715L319.315 100.407Z" fill="#D1FBFF"/>
<path d="M319.956 101.175C324.036 97.7734 329.964 97.7734 334.044 101.175L335.613 102.483C339.223 105.493 344.177 106.32 348.57 104.645L350.478 103.917C355.441 102.025 361.048 103.95 363.803 108.492L364.862 110.238C367.299 114.258 371.716 116.648 376.414 116.49L378.455 116.422C383.764 116.243 388.443 119.884 389.573 125.075L390.008 127.07C391.008 131.663 394.41 135.359 398.904 136.735L400.857 137.332C405.936 138.888 409.179 143.851 408.563 149.127L408.326 151.155C407.78 155.824 409.798 160.424 413.602 163.185L415.255 164.384C419.554 167.504 421.01 173.251 418.714 178.042L417.831 179.883C415.799 184.122 416.214 189.128 418.916 192.974L420.089 194.645C423.143 198.992 422.653 204.9 418.926 208.686L417.493 210.141C414.195 213.49 412.962 218.359 414.269 222.875L414.836 224.836C416.312 229.939 413.931 235.368 409.177 237.738L407.349 238.649C403.142 240.746 400.395 244.951 400.164 249.646L400.064 251.686C399.804 256.992 395.789 261.353 390.522 262.051L388.498 262.319C383.838 262.937 379.874 266.022 378.132 270.388L377.375 272.284C375.406 277.218 370.192 280.04 364.985 278.99L362.983 278.586C358.375 277.657 353.624 279.288 350.558 282.851L349.227 284.399C345.762 288.426 339.915 289.402 335.33 286.718L333.568 285.686C329.511 283.312 324.489 283.312 320.432 285.686L318.67 286.718C314.085 289.402 308.238 288.426 304.773 284.399L303.442 282.851C300.376 279.288 295.625 277.657 291.017 278.586L289.016 278.99C283.808 280.04 278.594 277.218 276.625 272.284L275.868 270.388C274.126 266.022 270.162 262.937 265.502 262.319L263.478 262.051C258.211 261.353 254.196 256.992 253.936 251.686L253.836 249.646C253.605 244.951 250.858 240.746 246.651 238.649L244.823 237.738C240.069 235.368 237.688 229.939 239.164 224.836L239.731 222.875C241.038 218.359 239.805 213.49 236.507 210.141L235.074 208.686C231.347 204.9 230.857 198.992 233.911 194.645L235.084 192.974C237.786 189.128 238.201 184.122 236.169 179.883L235.286 178.042C232.99 173.251 234.446 167.504 238.745 164.384L240.398 163.185C244.202 160.424 246.22 155.824 245.674 151.155L245.437 149.127C244.821 143.851 248.064 138.888 253.143 137.332L255.096 136.735C259.59 135.359 262.992 131.663 263.992 127.07L264.427 125.075C265.557 119.884 270.236 116.243 275.545 116.422L277.586 116.49C282.284 116.648 286.701 114.258 289.138 110.238L290.197 108.492C292.952 103.95 298.559 102.025 303.522 103.917L305.43 104.645C309.823 106.32 314.777 105.493 318.387 102.483L319.956 101.175Z" stroke="#03272C" stroke-opacity="0.15" stroke-width="2"/>
<path opacity="0.2" d="M347.25 173.75H306.75C304.96 173.75 303.243 174.461 301.977 175.727C300.711 176.993 300 178.71 300 180.5V212C300 213.79 300.711 215.507 301.977 216.773C303.243 218.039 304.96 218.75 306.75 218.75H347.25C349.04 218.75 350.757 218.039 352.023 216.773C353.289 215.507 354 213.79 354 212V180.5C354 178.71 353.289 176.993 352.023 175.727C350.757 174.461 349.04 173.75 347.25 173.75ZM337.125 209.75H316.875C315.383 209.75 313.952 209.157 312.898 208.102C311.843 207.048 311.25 205.617 311.25 204.125C311.25 202.633 311.843 201.202 312.898 200.148C313.952 199.093 315.383 198.5 316.875 198.5H337.125C338.617 198.5 340.048 199.093 341.102 200.148C342.157 201.202 342.75 202.633 342.75 204.125C342.75 205.617 342.157 207.048 341.102 208.102C340.048 209.157 338.617 209.75 337.125 209.75Z" fill="#088395"/>
<path d="M347.25 171.5H329.25V162.5C329.25 161.903 329.013 161.331 328.591 160.909C328.169 160.487 327.597 160.25 327 160.25C326.403 160.25 325.831 160.487 325.409 160.909C324.987 161.331 324.75 161.903 324.75 162.5V171.5H306.75C304.363 171.5 302.074 172.448 300.386 174.136C298.698 175.824 297.75 178.113 297.75 180.5V212C297.75 214.387 298.698 216.676 300.386 218.364C302.074 220.052 304.363 221 306.75 221H347.25C349.637 221 351.926 220.052 353.614 218.364C355.302 216.676 356.25 214.387 356.25 212V180.5C356.25 178.113 355.302 175.824 353.614 174.136C351.926 172.448 349.637 171.5 347.25 171.5ZM351.75 212C351.75 213.193 351.276 214.338 350.432 215.182C349.588 216.026 348.443 216.5 347.25 216.5H306.75C305.557 216.5 304.412 216.026 303.568 215.182C302.724 214.338 302.25 213.193 302.25 212V180.5C302.25 179.307 302.724 178.162 303.568 177.318C304.412 176.474 305.557 176 306.75 176H347.25C348.443 176 349.588 176.474 350.432 177.318C351.276 178.162 351.75 179.307 351.75 180.5V212ZM311.25 188.375C311.25 187.707 311.448 187.055 311.819 186.5C312.19 185.945 312.717 185.512 313.333 185.257C313.95 185.001 314.629 184.935 315.283 185.065C315.938 185.195 316.539 185.517 317.011 185.989C317.483 186.461 317.805 187.062 317.935 187.717C318.065 188.371 317.999 189.05 317.743 189.667C317.488 190.283 317.055 190.81 316.5 191.181C315.945 191.552 315.293 191.75 314.625 191.75C313.73 191.75 312.871 191.394 312.239 190.761C311.606 190.129 311.25 189.27 311.25 188.375ZM336 188.375C336 187.707 336.198 187.055 336.569 186.5C336.94 185.945 337.467 185.512 338.083 185.257C338.7 185.001 339.379 184.935 340.033 185.065C340.688 185.195 341.289 185.517 341.761 185.989C342.233 186.461 342.555 187.062 342.685 187.717C342.815 188.371 342.749 189.05 342.493 189.667C342.238 190.283 341.805 190.81 341.25 191.181C340.695 191.552 340.043 191.75 339.375 191.75C338.48 191.75 337.621 191.394 336.989 190.761C336.356 190.129 336 189.27 336 188.375ZM337.125 196.25H316.875C314.786 196.25 312.783 197.08 311.307 198.557C309.83 200.033 309 202.036 309 204.125C309 206.214 309.83 208.217 311.307 209.693C312.783 211.17 314.786 212 316.875 212H337.125C339.214 212 341.217 211.17 342.693 209.693C344.17 208.217 345 206.214 345 204.125C345 202.036 344.17 200.033 342.693 198.557C341.217 197.08 339.214 196.25 337.125 196.25ZM330.375 200.75V207.5H323.625V200.75H330.375ZM313.5 204.125C313.5 203.23 313.856 202.371 314.489 201.739C315.121 201.106 315.98 200.75 316.875 200.75H319.125V207.5H316.875C315.98 207.5 315.121 207.144 314.489 206.511C313.856 205.879 313.5 205.02 313.5 204.125ZM337.125 207.5H334.875V200.75H337.125C338.02 200.75 338.879 201.106 339.511 201.739C340.144 202.371 340.5 203.23 340.5 204.125C340.5 205.02 340.144 205.879 339.511 206.511C338.879 207.144 338.02 207.5 337.125 207.5Z" fill="#088395"/>
<rect x="443" y="180" width="43" height="2" rx="1" fill="url(#paint2_linear_0_1)"/>
<g filter="url(#filter2_d_0_1)">
<rect x="92" y="18" width="142" height="50" rx="10" fill="white"/>
<rect x="92.5" y="18.5" width="141" height="49" rx="9.5" stroke="#03272C" stroke-opacity="0.15"/>
</g>
<rect x="105" y="33" width="82" height="8" rx="4" fill="#03272C" fill-opacity="0.15"/>
<g filter="url(#filter3_d_0_1)">
<rect x="67" y="264" width="142" height="50" rx="10" fill="white"/>
<rect x="67.5" y="264.5" width="141" height="49" rx="9.5" stroke="#03272C" stroke-opacity="0.15"/>
</g>
<rect x="80" y="278" width="55" height="8" rx="4" fill="#03272C" fill-opacity="0.15"/>
<rect x="80" y="293" width="76" height="8" rx="4" fill="#03272C" fill-opacity="0.15"/>
<g opacity="0.5">
<g filter="url(#filter4_d_0_1)">
<rect x="485" y="155" width="116" height="50" rx="10" fill="white"/>
<rect x="485.5" y="155.5" width="115" height="49" rx="9.5" stroke="#03272C" stroke-opacity="0.15"/>
</g>
<rect x="498" y="169" width="55" height="8" rx="4" fill="#03272C" fill-opacity="0.15"/>
<rect x="498" y="184" width="76" height="8" rx="4" fill="#03272C" fill-opacity="0.15"/>
</g>
<rect x="105" y="47" width="70" height="8" rx="4" fill="#03272C" fill-opacity="0.15"/>
<defs>
<filter id="filter0_f_0_1" x="-93" y="277" width="814" height="248" filterUnits="userSpaceOnUse" color-interpolation-filters="sRGB">
<feFlood flood-opacity="0" result="BackgroundImageFix"/>
<feBlend mode="normal" in="SourceGraphic" in2="BackgroundImageFix" result="shape"/>
<feGaussianBlur stdDeviation="25" result="effect1_foregroundBlur_0_1"/>
</filter>
<filter id="filter1_d_0_1" x="199.039" y="74.7238" width="255.922" height="255.293" filterUnits="userSpaceOnUse" color-interpolation-filters="sRGB">
<feFlood flood-opacity="0" result="BackgroundImageFix"/>
<feColorMatrix in="SourceAlpha" type="matrix" values="0 0 0 0 0 0 0 0 0 0 0 0 0 0 0 0 0 0 127 0" result="hardAlpha"/>
<feOffset dy="9"/>
<feGaussianBlur stdDeviation="11.95"/>
<feComposite in2="hardAlpha" operator="out"/>
<feColorMatrix type="matrix" values="0 0 0 0 0.0103684 0 0 0 0 0.152772 0 0 0 0 0.173611 0 0 0 0.07 0"/>
<feBlend mode="normal" in2="BackgroundImageFix" result="effect1_dropShadow_0_1"/>
<feBlend mode="normal" in="SourceGraphic" in2="effect1_dropShadow_0_1" result="shape"/>
</filter>
<filter id="filter2_d_0_1" x="68.1" y="3.1" width="189.8" height="97.8" filterUnits="userSpaceOnUse" color-interpolation-filters="sRGB">
<feFlood flood-opacity="0" result="BackgroundImageFix"/>
<feColorMatrix in="SourceAlpha" type="matrix" values="0 0 0 0 0 0 0 0 0 0 0 0 0 0 0 0 0 0 127 0" result="hardAlpha"/>
<feOffset dy="9"/>
<feGaussianBlur stdDeviation="11.95"/>
<feComposite in2="hardAlpha" operator="out"/>
<feColorMatrix type="matrix" values="0 0 0 0 0.0103684 0 0 0 0 0.152772 0 0 0 0 0.173611 0 0 0 0.07 0"/>
<feBlend mode="normal" in2="BackgroundImageFix" result="effect1_dropShadow_0_1"/>
<feBlend mode="normal" in="SourceGraphic" in2="effect1_dropShadow_0_1" result="shape"/>
</filter>
<filter id="filter3_d_0_1" x="43.1" y="249.1" width="189.8" height="97.8" filterUnits="userSpaceOnUse" color-interpolation-filters="sRGB">
<feFlood flood-opacity="0" result="BackgroundImageFix"/>
<feColorMatrix in="SourceAlpha" type="matrix" values="0 0 0 0 0 0 0 0 0 0 0 0 0 0 0 0 0 0 127 0" result="hardAlpha"/>
<feOffset dy="9"/>
<feGaussianBlur stdDeviation="11.95"/>
<feComposite in2="hardAlpha" operator="out"/>
<feColorMatrix type="matrix" values="0 0 0 0 0.0103684 0 0 0 0 0.152772 0 0 0 0 0.173611 0 0 0 0.07 0"/>
<feBlend mode="normal" in2="BackgroundImageFix" result="effect1_dropShadow_0_1"/>
<feBlend mode="normal" in="SourceGraphic" in2="effect1_dropShadow_0_1" result="shape"/>
</filter>
<filter id="filter4_d_0_1" x="461.1" y="140.1" width="163.8" height="97.8" filterUnits="userSpaceOnUse" color-interpolation-filters="sRGB">
<feFlood flood-opacity="0" result="BackgroundImageFix"/>
<feColorMatrix in="SourceAlpha" type="matrix" values="0 0 0 0 0 0 0 0 0 0 0 0 0 0 0 0 0 0 127 0" result="hardAlpha"/>
<feOffset dy="9"/>
<feGaussianBlur stdDeviation="11.95"/>
<feComposite in2="hardAlpha" operator="out"/>
<feColorMatrix type="matrix" values="0 0 0 0 0.0103684 0 0 0 0 0.152772 0 0 0 0 0.173611 0 0 0 0.07 0"/>
<feBlend mode="normal" in2="BackgroundImageFix" result="effect1_dropShadow_0_1"/>
<feBlend mode="normal" in="SourceGraphic" in2="effect1_dropShadow_0_1" result="shape"/>
</filter>
<linearGradient id="paint0_linear_0_1" x1="485.5" y1="178" x2="536" y2="139" gradientUnits="userSpaceOnUse">
<stop stop-color="#D9DFDF"/>
<stop offset="1" stop-color="#D9DFDF" stop-opacity="0.02"/>
</linearGradient>
<linearGradient id="paint1_linear_0_1" x1="326" y1="59" x2="309.366" y2="45.243" gradientUnits="userSpaceOnUse">
<stop stop-color="#37B7C3" stop-opacity="0"/>
<stop offset="1" stop-color="#37B7C3"/>
</linearGradient>
<linearGradient id="paint2_linear_0_1" x1="443" y1="181" x2="486" y2="181" gradientUnits="userSpaceOnUse">
<stop stop-color="#37B7C3" stop-opacity="0"/>
<stop offset="1" stop-color="#37B7C3"/>
</linearGradient>
</defs>
</svg>
