<svg width="66" height="66" viewBox="0 0 66 66" fill="none" xmlns="http://www.w3.org/2000/svg">
<circle cx="33" cy="33" r="33" fill="#03272C"/>
<path d="M43.4375 21.4688H21.5625C20.9823 21.4688 20.4259 21.6992 20.0157 22.1095C19.6055 22.5197 19.375 23.0761 19.375 23.6562V31.3125C19.375 38.5203 22.8641 42.8885 25.7912 45.2838C28.9439 47.8623 32.0803 48.7373 32.217 48.7742C32.405 48.8254 32.6032 48.8254 32.7912 48.7742C32.9279 48.7373 36.0602 47.8623 39.217 45.2838C42.1359 42.8885 45.625 38.5203 45.625 31.3125V23.6562C45.625 23.0761 45.3945 22.5197 44.9843 22.1095C44.5741 21.6992 44.0177 21.4688 43.4375 21.4688ZM38.7453 30.9926L31.0891 38.6488C30.9875 38.7505 30.8669 38.8312 30.7341 38.8862C30.6013 38.9413 30.459 38.9696 30.3152 38.9696C30.1715 38.9696 30.0292 38.9413 29.8964 38.8862C29.7636 38.8312 29.643 38.7505 29.5414 38.6488L26.2602 35.3676C26.0549 35.1623 25.9396 34.884 25.9396 34.5938C25.9396 34.3035 26.0549 34.0252 26.2602 33.8199C26.4654 33.6147 26.7437 33.4994 27.034 33.4994C27.3242 33.4994 27.6026 33.6147 27.8078 33.8199L30.3125 36.3287L37.1949 29.4449C37.2965 29.3433 37.4172 29.2627 37.55 29.2077C37.6827 29.1527 37.825 29.1244 37.9688 29.1244C38.1125 29.1244 38.2548 29.1527 38.3875 29.2077C38.5203 29.2627 38.641 29.3433 38.7426 29.4449C38.8442 29.5465 38.9248 29.6672 38.9798 29.8C39.0348 29.9327 39.0631 30.075 39.0631 30.2188C39.0631 30.3625 39.0348 30.5048 38.9798 30.6375C38.9248 30.7703 38.8442 30.891 38.7426 30.9926H38.7453Z" fill="white"/>
</svg>
