<svg width="66" height="66" viewBox="0 0 66 66" fill="none" xmlns="http://www.w3.org/2000/svg">
<circle cx="33" cy="33" r="33" fill="#03272C"/>
<path d="M37.6652 46.625H43.4375C44.0177 46.625 44.5741 46.3945 44.9843 45.9843C45.3945 45.5741 45.625 45.0177 45.625 44.4375V39.29C45.6241 39.1107 45.579 38.9343 45.4939 38.7764C45.4087 38.6186 45.286 38.4841 45.1366 38.3848C44.9872 38.2855 44.8157 38.2245 44.6372 38.2071C44.4587 38.1897 44.2786 38.2165 44.1129 38.2852C43.7253 38.4452 43.31 38.5275 42.8906 38.5271C41.0818 38.5271 39.6094 37.0096 39.6094 35.1461C39.6094 33.2826 41.0818 31.765 42.8906 31.765C43.31 31.7647 43.7253 31.8469 44.1129 32.007C44.2795 32.076 44.4605 32.1027 44.6399 32.0848C44.8193 32.0669 44.9915 32.0049 45.1412 31.9044C45.2908 31.8038 45.4133 31.6678 45.4977 31.5085C45.5821 31.3492 45.6259 31.1715 45.625 30.9912V25.8438C45.625 25.2636 45.3945 24.7072 44.9843 24.297C44.5741 23.8867 44.0177 23.6562 43.4375 23.6562H38.4855C38.5059 23.4747 38.5159 23.2921 38.5156 23.1094C38.5156 21.804 37.9971 20.5521 37.074 19.6291C36.151 18.7061 34.8991 18.1875 33.5938 18.1875C32.2884 18.1875 31.0365 18.7061 30.1135 19.6291C29.1904 20.5521 28.6719 21.804 28.6719 23.1094C28.6716 23.2921 28.6816 23.4747 28.702 23.6562H23.75C23.1698 23.6562 22.6134 23.8867 22.2032 24.297C21.793 24.7072 21.5625 25.2636 21.5625 25.8438V30.2488C21.3809 30.2285 21.1983 30.2184 21.0156 30.2188C19.7103 30.2188 18.4584 30.7373 17.5353 31.6603C16.6123 32.5834 16.0938 33.8353 16.0938 35.1406C16.0938 36.446 16.6123 37.6979 17.5353 38.6209C18.4584 39.5439 19.7103 40.0625 21.0156 40.0625C21.1983 40.0628 21.3809 40.0528 21.5625 40.0324V44.4375C21.5625 45.0177 21.793 45.5741 22.2032 45.9843C22.6134 46.3945 23.1698 46.625 23.75 46.625H29.5223" fill="white"/>
</svg>
