<svg width="66" height="66" viewBox="0 0 66 66" fill="none" xmlns="http://www.w3.org/2000/svg">
<circle cx="33" cy="33" r="33" fill="#03272C"/>
<path d="M42.375 34.875C42.3774 35.2572 42.2612 35.6308 42.0426 35.9444C41.8239 36.2579 41.5134 36.496 41.1539 36.6258L35.1094 38.8594L32.8828 44.9086C32.751 45.2668 32.5124 45.5759 32.1993 45.7943C31.8863 46.0127 31.5137 46.1298 31.132 46.1298C30.7503 46.1298 30.3778 46.0127 30.0647 45.7943C29.7517 45.5759 29.5131 45.2668 29.3813 44.9086L27.1406 38.8594L21.0914 36.6328C20.7332 36.501 20.4241 36.2624 20.2057 35.9493C19.9873 35.6363 19.8702 35.2637 19.8702 34.882C19.8702 34.5003 19.9873 34.1278 20.2057 33.8147C20.4241 33.5017 20.7332 33.2631 21.0914 33.1313L27.1406 30.8906L29.3672 24.8414C29.499 24.4832 29.7376 24.1741 30.0507 23.9557C30.3637 23.7373 30.7363 23.6202 31.118 23.6202C31.4997 23.6202 31.8722 23.7373 32.1853 23.9557C32.4983 24.1741 32.7369 24.4832 32.8688 24.8414L35.1094 30.8906L41.1586 33.1172C41.5184 33.2482 41.8286 33.4877 42.0465 33.8025C42.2644 34.1174 42.3792 34.4921 42.375 34.875ZM35.8125 23.625H37.6875V25.5C37.6875 25.7486 37.7863 25.9871 37.9621 26.1629C38.1379 26.3387 38.3764 26.4375 38.625 26.4375C38.8736 26.4375 39.1121 26.3387 39.2879 26.1629C39.4637 25.9871 39.5625 25.7486 39.5625 25.5V23.625H41.4375C41.6861 23.625 41.9246 23.5262 42.1004 23.3504C42.2762 23.1746 42.375 22.9361 42.375 22.6875C42.375 22.4389 42.2762 22.2004 42.1004 22.0246C41.9246 21.8488 41.6861 21.75 41.4375 21.75H39.5625V19.875C39.5625 19.6264 39.4637 19.3879 39.2879 19.2121C39.1121 19.0363 38.8736 18.9375 38.625 18.9375C38.3764 18.9375 38.1379 19.0363 37.9621 19.2121C37.7863 19.3879 37.6875 19.6264 37.6875 19.875V21.75H35.8125C35.5639 21.75 35.3254 21.8488 35.1496 22.0246C34.9738 22.2004 34.875 22.4389 34.875 22.6875C34.875 22.9361 34.9738 23.1746 35.1496 23.3504C35.3254 23.5262 35.5639 23.625 35.8125 23.625ZM46.125 27.375H45.1875V26.4375C45.1875 26.1889 45.0887 25.9504 44.9129 25.7746C44.7371 25.5988 44.4986 25.5 44.25 25.5C44.0014 25.5 43.7629 25.5988 43.5871 25.7746C43.4113 25.9504 43.3125 26.1889 43.3125 26.4375V27.375H42.375C42.1264 27.375 41.8879 27.4738 41.7121 27.6496C41.5363 27.8254 41.4375 28.0639 41.4375 28.3125C41.4375 28.5611 41.5363 28.7996 41.7121 28.9754C41.8879 29.1512 42.1264 29.25 42.375 29.25H43.3125V30.1875C43.3125 30.4361 43.4113 30.6746 43.5871 30.8504C43.7629 31.0262 44.0014 31.125 44.25 31.125C44.4986 31.125 44.7371 31.0262 44.9129 30.8504C45.0887 30.6746 45.1875 30.4361 45.1875 30.1875V29.25H46.125C46.3736 29.25 46.6121 29.1512 46.7879 28.9754C46.9637 28.7996 47.0625 28.5611 47.0625 28.3125C47.0625 28.0639 46.9637 27.8254 46.7879 27.6496C46.6121 27.4738 46.3736 27.375 46.125 27.375Z" fill="white"/>
</svg>
