<svg width="66" height="66" viewBox="0 0 66 66" fill="none" xmlns="http://www.w3.org/2000/svg">
<circle cx="33" cy="33" r="33" fill="#03272C"/>
<path d="M46.7616 29.4591C46.2314 28.905 45.683 28.3341 45.4762 27.832C45.285 27.3722 45.2738 26.61 45.2625 25.8717C45.2414 24.4992 45.2189 22.9439 44.1375 21.8625C43.0561 20.7811 41.5008 20.7586 40.1283 20.7375C39.39 20.7262 38.6278 20.715 38.168 20.5237C37.6673 20.317 37.095 19.7686 36.5409 19.2384C35.5706 18.3061 34.4681 17.25 33 17.25C31.5319 17.25 30.4308 18.3061 29.4591 19.2384C28.905 19.7686 28.3341 20.317 27.832 20.5237C27.375 20.715 26.61 20.7262 25.8717 20.7375C24.4992 20.7586 22.9439 20.7811 21.8625 21.8625C20.7811 22.9439 20.7656 24.4992 20.7375 25.8717C20.7262 26.61 20.715 27.3722 20.5237 27.832C20.317 28.3327 19.7686 28.905 19.2384 29.4591C18.3061 30.4294 17.25 31.5319 17.25 33C17.25 34.4681 18.3061 35.5692 19.2384 36.5409C19.7686 37.095 20.317 37.6659 20.5237 38.168C20.715 38.6278 20.7262 39.39 20.7375 40.1283C20.7586 41.5008 20.7811 43.0561 21.8625 44.1375C22.9439 45.2189 24.4992 45.2414 25.8717 45.2625C26.61 45.2738 27.3722 45.285 27.832 45.4762C28.3327 45.683 28.905 46.2314 29.4591 46.7616C30.4294 47.6939 31.5319 48.75 33 48.75C34.4681 48.75 35.5692 47.6939 36.5409 46.7616C37.095 46.2314 37.6659 45.683 38.168 45.4762C38.6278 45.285 39.39 45.2738 40.1283 45.2625C41.5008 45.2414 43.0561 45.2189 44.1375 44.1375C45.2189 43.0561 45.2414 41.5008 45.2625 40.1283C45.2738 39.39 45.285 38.6278 45.4762 38.168C45.683 37.6673 46.2314 37.095 46.7616 36.5409C47.6939 35.5706 48.75 34.4681 48.75 33C48.75 31.5319 47.6939 30.4308 46.7616 29.4591ZM31.875 26.25C31.875 25.9516 31.9935 25.6655 32.2045 25.4545C32.4155 25.2435 32.7016 25.125 33 25.125C33.2984 25.125 33.5845 25.2435 33.7955 25.4545C34.0065 25.6655 34.125 25.9516 34.125 26.25V34.125C34.125 34.4234 34.0065 34.7095 33.7955 34.9205C33.5845 35.1315 33.2984 35.25 33 35.25C32.7016 35.25 32.4155 35.1315 32.2045 34.9205C31.9935 34.7095 31.875 34.4234 31.875 34.125V26.25ZM33 40.875C32.6662 40.875 32.34 40.776 32.0625 40.5906C31.785 40.4052 31.5687 40.1416 31.441 39.8333C31.3132 39.5249 31.2798 39.1856 31.3449 38.8583C31.41 38.5309 31.5708 38.2303 31.8068 37.9943C32.0428 37.7583 32.3434 37.5975 32.6708 37.5324C32.9981 37.4673 33.3374 37.5007 33.6458 37.6285C33.9541 37.7562 34.2177 37.9725 34.4031 38.25C34.5885 38.5275 34.6875 38.8537 34.6875 39.1875C34.6875 39.6351 34.5097 40.0643 34.1932 40.3807C33.8768 40.6972 33.4476 40.875 33 40.875Z" fill="white"/>
</svg>
