<svg width="66" height="66" viewBox="0 0 66 66" fill="none" xmlns="http://www.w3.org/2000/svg">
<circle cx="33" cy="33" r="33" fill="#03272C"/>
<path d="M47.5309 30.6575C47.5004 30.5035 47.4371 30.3578 47.3454 30.2304C47.2536 30.103 47.1355 29.9969 46.999 29.9192L42.9207 27.595L42.9043 22.9985C42.9038 22.8402 42.869 22.6839 42.8022 22.5404C42.7354 22.3969 42.6382 22.2696 42.5174 22.1673C41.038 20.9159 39.3344 19.9569 37.4971 19.3413C37.3524 19.2923 37.1991 19.2742 37.0469 19.2881C36.8948 19.302 36.7473 19.3476 36.6139 19.422L32.5 21.7216L28.382 19.4179C28.2485 19.3431 28.1008 19.2971 27.9485 19.283C27.7961 19.2689 27.6425 19.2869 27.4975 19.3358C25.6613 19.9554 23.9595 20.9181 22.4826 22.1727C22.362 22.2749 22.2649 22.402 22.1982 22.5452C22.1314 22.6885 22.0964 22.8446 22.0957 23.0026L22.0752 27.6032L17.9969 29.9274C17.8604 30.0051 17.7423 30.1113 17.6506 30.2386C17.5588 30.366 17.4955 30.5117 17.4651 30.6657C17.0918 32.5413 17.0918 34.4721 17.4651 36.3477C17.4955 36.5018 17.5588 36.6474 17.6506 36.7748C17.7423 36.9022 17.8604 37.0083 17.9969 37.086L22.0752 39.4102L22.0916 44.0081C22.0921 44.1664 22.127 44.3227 22.1938 44.4662C22.2606 44.6097 22.3577 44.737 22.4785 44.8393C23.9579 46.0907 25.6616 47.0497 27.4988 47.6653C27.6435 47.7143 27.7969 47.7324 27.949 47.7185C28.1011 47.7046 28.2486 47.659 28.382 47.5847L32.5 45.2782L36.618 47.5819C36.781 47.6727 36.9646 47.7198 37.1512 47.7186C37.2706 47.7186 37.3893 47.6992 37.5026 47.6612C39.3383 47.0419 41.0399 46.0802 42.5174 44.827C42.638 44.7249 42.7351 44.5978 42.8019 44.4545C42.8687 44.3113 42.9036 44.1552 42.9043 43.9972L42.9248 39.3966L47.0031 37.0724C47.1396 36.9947 47.2577 36.8885 47.3495 36.7611C47.4412 36.6338 47.5045 36.4881 47.535 36.3341C47.9061 34.46 47.9048 32.5311 47.5309 30.6575ZM32.5 38.9686C31.4184 38.9686 30.3611 38.6479 29.4617 38.047C28.5624 37.4461 27.8615 36.592 27.4475 35.5927C27.0336 34.5934 26.9253 33.4938 27.1363 32.433C27.3474 31.3722 27.8682 30.3977 28.633 29.6329C29.3978 28.8681 30.3723 28.3472 31.4331 28.1362C32.4939 27.9252 33.5935 28.0335 34.5928 28.4474C35.5921 28.8613 36.4462 29.5623 37.0471 30.4616C37.648 31.3609 37.9688 32.4183 37.9688 33.4999C37.9688 34.9503 37.3926 36.3413 36.367 37.3669C35.3414 38.3925 33.9504 38.9686 32.5 38.9686Z" fill="white"/>
</svg>
