<svg width="241" height="36" viewBox="0 0 241 36" fill="none" xmlns="http://www.w3.org/2000/svg">
<path d="M29.8478 10.0897L20.2228 0.464688C20.095 0.337041 19.9433 0.235822 19.7764 0.166813C19.6095 0.0978042 19.4306 0.0623584 19.25 0.0625004H2.75C2.02065 0.0625004 1.32118 0.352232 0.805456 0.867957C0.289731 1.38368 0 2.08315 0 2.8125V15.1875C0 15.5522 0.144866 15.9019 0.402728 16.1598C0.660591 16.4176 1.01033 16.5625 1.375 16.5625C1.73967 16.5625 2.08941 16.4176 2.34727 16.1598C2.60513 15.9019 2.75 15.5522 2.75 15.1875V2.8125H17.875V11.0625C17.875 11.4272 18.0199 11.7769 18.2777 12.0348C18.5356 12.2926 18.8853 12.4375 19.25 12.4375H27.5V33.0625H24.125C23.7603 33.0625 23.4106 33.2074 23.1527 33.4652C22.8949 33.7231 22.75 34.0728 22.75 34.4375C22.75 34.8022 22.8949 35.1519 23.1527 35.4098C23.4106 35.6676 23.7603 35.8125 24.125 35.8125H27.5C28.2293 35.8125 28.9288 35.5228 29.4445 35.007C29.9603 34.4913 30.25 33.7918 30.25 33.0625V11.0625C30.2501 10.8819 30.2147 10.703 30.1457 10.5361C30.0767 10.3692 29.9755 10.2175 29.8478 10.0897ZM20.625 4.75641L25.5561 9.6875H20.625V4.75641Z" fill="#071952"/>
<rect x="1.125" y="20.9375" width="17" height="14" rx="1.5" stroke="#071952" stroke-width="2"/>
<rect x="1.125" y="20.9375" width="17" height="6" fill="#071952"/>
<rect x="6.125" y="26.9375" width="2" height="8" fill="#071952"/>
<rect x="18.125" y="29.9375" width="2" height="17" transform="rotate(90 18.125 29.9375)" fill="#071952"/>
<path d="M55.706 8.502V12.012H50.558V26H46.762V12.012H41.614V8.502H55.706ZM62.0124 26.338C58.2684 26.338 55.6424 23.27 55.6424 19.526C55.6424 15.834 58.6584 12.74 62.6104 12.74C66.6404 12.74 69.6044 15.652 69.6044 19.526V26H66.0944V24.492C65.1844 25.636 63.7804 26.338 62.0124 26.338ZM62.6104 22.88C64.5084 22.88 65.9124 21.372 65.9124 19.552C65.9124 17.732 64.5084 16.224 62.6104 16.224C60.7124 16.224 59.3344 17.732 59.3344 19.552C59.3344 21.372 60.7124 22.88 62.6104 22.88ZM79.6628 26.364C75.6588 26.364 72.6948 23.478 72.6948 19.578V7.202H76.3868V13.962C77.3488 13.234 78.5708 12.766 79.8708 12.766C83.8748 12.766 86.6308 15.574 86.6308 19.578C86.6308 23.296 83.6408 26.364 79.6628 26.364ZM79.6628 22.88C81.5608 22.88 82.9388 21.398 82.9388 19.578C82.9388 17.758 81.5608 16.25 79.6628 16.25C77.7648 16.25 76.3868 17.758 76.3868 19.578C76.3868 21.398 77.7648 22.88 79.6628 22.88ZM89.6171 7.202H93.3091V26H89.6171V7.202ZM103.287 26.338C99.2834 26.338 96.2674 23.556 96.2674 19.448C96.2674 15.73 98.9714 12.662 102.949 12.662C107.031 12.662 109.397 15.678 109.397 19.188V20.28H99.8294C100.089 21.996 101.415 23.14 103.261 23.14C104.665 23.14 105.835 22.464 106.433 21.268L109.267 22.698C108.149 25.012 106.017 26.338 103.287 26.338ZM99.9854 18.226H105.731C105.575 16.9 104.483 15.886 102.923 15.886C101.311 15.886 100.245 16.926 99.9854 18.226ZM125.387 26H115.975C113.557 26 112.621 24.752 112.621 22.75V11.778C112.621 9.776 113.557 8.502 115.975 8.502H125.231V11.908H116.417V15.548H124.685V18.954H116.417V22.594H125.387V26ZM131.758 26H127.624L130.64 21.112C131.03 20.488 131.212 20.02 131.212 19.578C131.212 19.162 131.056 18.746 130.718 18.2L127.624 13.13H131.784L133.968 16.744C134.176 17.082 134.358 17.472 134.462 17.862H135.528C135.632 17.472 135.814 17.082 136.022 16.744L138.206 13.13H142.366L139.272 18.2C138.934 18.746 138.778 19.162 138.778 19.578C138.778 20.02 138.96 20.488 139.35 21.112L142.366 26H138.232L136.022 22.438C135.788 22.048 135.58 21.606 135.45 21.164H134.54C134.41 21.606 134.202 22.048 133.968 22.438L131.758 26ZM151.409 26.364C147.691 26.364 145.845 24.128 145.845 20.904V16.25H143.479V13.13H145.845V9.854H149.537V13.13H154.087V16.25H149.537V20.8C149.537 22.23 150.395 23.062 151.747 23.062C152.501 23.062 153.463 22.828 154.087 22.438V25.74C153.437 26.156 152.319 26.364 151.409 26.364ZM160.43 26H156.738V18.616C156.738 15.314 158.61 12.792 162.432 12.792C163.264 12.792 164.174 12.948 164.824 13.234V16.822C164.2 16.458 163.446 16.276 162.77 16.276C161.314 16.276 160.43 17.212 160.43 18.746V26ZM172.36 26.338C168.616 26.338 165.99 23.27 165.99 19.526C165.99 15.834 169.006 12.74 172.958 12.74C176.988 12.74 179.952 15.652 179.952 19.526V26H176.442V24.492C175.532 25.636 174.128 26.338 172.36 26.338ZM172.958 22.88C174.856 22.88 176.26 21.372 176.26 19.552C176.26 17.732 174.856 16.224 172.958 16.224C171.06 16.224 169.682 17.732 169.682 19.552C169.682 21.372 171.06 22.88 172.958 22.88ZM189.308 26.338C185.434 26.364 182.392 23.27 182.392 19.552C182.392 15.808 185.434 12.74 189.308 12.766C191.778 12.792 194.066 13.91 195.236 16.406L192.194 18.07C191.622 16.952 190.582 16.25 189.308 16.25C187.462 16.25 186.084 17.732 186.084 19.552C186.084 21.372 187.462 22.854 189.308 22.854C190.582 22.854 191.622 22.152 192.194 21.034L195.236 22.698C194.066 25.194 191.778 26.312 189.308 26.338ZM204.069 26.364C200.351 26.364 198.505 24.128 198.505 20.904V16.25H196.139V13.13H198.505V9.854H202.197V13.13H206.747V16.25H202.197V20.8C202.197 22.23 203.055 23.062 204.407 23.062C205.161 23.062 206.123 22.828 206.747 22.438V25.74C206.097 26.156 204.979 26.364 204.069 26.364ZM212.076 26.286C210.802 26.286 209.788 25.246 209.788 23.998C209.788 22.75 210.802 21.71 212.076 21.71C213.324 21.71 214.338 22.75 214.338 23.998C214.338 25.246 213.324 26.286 212.076 26.286ZM222.989 26.338C219.245 26.338 216.619 23.27 216.619 19.526C216.619 15.834 219.635 12.74 223.587 12.74C227.617 12.74 230.581 15.652 230.581 19.526V26H227.071V24.492C226.161 25.636 224.757 26.338 222.989 26.338ZM223.587 22.88C225.485 22.88 226.889 21.372 226.889 19.552C226.889 17.732 225.485 16.224 223.587 16.224C221.689 16.224 220.311 17.732 220.311 19.552C220.311 21.372 221.689 22.88 223.587 22.88ZM236.037 11.206C234.789 11.206 233.749 10.192 233.749 8.918C233.749 7.67 234.789 6.63 236.037 6.63C237.285 6.63 238.299 7.67 238.299 8.918C238.299 10.192 237.285 11.206 236.037 11.206ZM234.191 13.13H237.883V26H234.191V13.13Z" fill="#071952"/>
</svg>
