<svg width="66" height="66" viewBox="0 0 66 66" fill="none" xmlns="http://www.w3.org/2000/svg">
<circle cx="33" cy="33" r="33" fill="#03272C"/>
<path d="M46.3338 28.4223C46.2891 28.3546 46.2298 28.2977 46.1603 28.2557C46.0909 28.2137 46.0129 28.1877 45.9322 28.1796C45.8514 28.1715 45.7698 28.1815 45.6934 28.2088C45.617 28.2361 45.5476 28.2801 45.4902 28.3376L35.1789 38.6489C34.9702 38.8344 34.6985 38.933 34.4194 38.9246C34.1404 38.9162 33.8751 38.8014 33.6779 38.6037C33.4807 38.4061 33.3666 38.1405 33.359 37.8614C33.3513 37.5823 33.4507 37.3108 33.6367 37.1026L46.3106 24.4301C46.4122 24.3285 46.4928 24.2079 46.5478 24.0751C46.6028 23.9423 46.6311 23.8 46.6311 23.6563C46.6311 23.5126 46.6028 23.3703 46.5478 23.2375C46.4928 23.1048 46.4122 22.9841 46.3106 22.8825C46.2089 22.7809 46.0883 22.7003 45.9555 22.6453C45.8228 22.5903 45.6804 22.562 45.5367 22.562C45.393 22.562 45.2507 22.5903 45.1179 22.6453C44.9852 22.7003 44.8645 22.7809 44.7629 22.8825L42.9336 24.7132C40.323 22.6742 37.1218 21.5364 33.8099 21.4703C30.4981 21.4042 27.254 22.4134 24.5641 24.3465C21.8742 26.2796 19.8833 29.0326 18.8899 32.1926C17.8966 35.3527 17.9542 38.7496 19.0543 41.8741C19.205 42.3025 19.4846 42.6737 19.8548 42.9369C20.2249 43.2 20.6674 43.3422 21.1215 43.3438H45.8772C46.3308 43.3441 46.7734 43.2033 47.1435 42.941C47.5136 42.6786 47.793 42.3077 47.943 41.8796C48.7226 39.6629 48.9829 37.2969 48.704 34.9637C48.425 32.6306 47.6141 30.3927 46.3338 28.4223ZM23.8531 38.7514C23.9108 39.0357 23.8531 39.3312 23.6929 39.573C23.5326 39.8148 23.2829 39.983 22.9986 40.0407C22.9267 40.0554 22.8534 40.0627 22.7799 40.0626C22.5278 40.0622 22.2835 39.9748 22.0885 39.8151C21.8934 39.6555 21.7595 39.4333 21.7094 39.1862C21.3183 37.2609 21.4043 35.2691 21.9599 33.3846C22.5155 31.5002 23.5238 29.7803 24.8969 28.3751C26.27 26.97 27.9661 25.9222 29.8372 25.3232C31.7083 24.7242 33.6976 24.5922 35.6315 24.9387C35.917 24.9899 36.1705 25.1523 36.3363 25.3904C36.5021 25.6285 36.5665 25.9226 36.5153 26.2082C36.4642 26.4937 36.3018 26.7473 36.0637 26.913C35.8256 27.0788 35.5315 27.1432 35.2459 27.0921C33.6634 26.8088 32.0356 26.917 30.5045 27.4072C28.9735 27.8975 27.5856 28.755 26.462 29.9049C25.3385 31.0547 24.5133 32.462 24.0586 34.004C23.6038 35.5461 23.5333 37.1759 23.8531 38.7514Z" fill="white"/>
</svg>
