<svg width="42" height="35" viewBox="0 0 42 35" fill="none" xmlns="http://www.w3.org/2000/svg">
<path d="M23.84 34.28V23.4C23.84 17.1707 25.2907 12.0507 28.192 8.03999C31.1787 3.944 35.488 1.29866 41.12 0.103996V7.144C38.3893 7.82667 36.256 9.10666 34.72 10.984C33.184 12.776 32.2453 14.9947 31.904 17.64H38.56V34.28H23.84ZM0.160001 34.28V23.4C0.160001 17.1707 1.61067 12.0507 4.512 8.03999C7.49867 3.944 11.808 1.29866 17.44 0.103996V7.144C14.7093 7.82667 12.576 9.10666 11.04 10.984C9.504 12.776 8.56533 14.9947 8.224 17.64H14.88V34.28H0.160001Z" fill="#088395"/>
</svg>
