<svg width="66" height="66" viewBox="0 0 66 66" fill="none" xmlns="http://www.w3.org/2000/svg">
<circle cx="33" cy="33" r="33" fill="#03272C"/>
<path d="M46.1459 25.1273L46.135 25.1396L36.875 35.0271V42.6137C36.8755 42.9745 36.7868 43.3298 36.6167 43.6481C36.4466 43.9663 36.2005 44.2375 35.9002 44.4375L31.5252 47.3551C31.1955 47.5747 30.8124 47.7006 30.4167 47.7195C30.021 47.7384 29.6276 47.6494 29.2785 47.4622C28.9294 47.2749 28.6377 46.9964 28.4346 46.6563C28.2314 46.3162 28.1244 45.9274 28.125 45.5312V35.0271L18.865 25.1396L18.8541 25.1273C18.5694 24.814 18.3817 24.4248 18.3138 24.0069C18.246 23.589 18.3008 23.1604 18.4718 22.773C18.6427 22.3857 18.9224 22.0563 19.2769 21.8248C19.6313 21.5933 20.0454 21.4696 20.4687 21.4688H44.5312C44.955 21.4688 45.3696 21.5919 45.7246 21.8231C46.0797 22.0543 46.36 22.3837 46.5315 22.7712C46.7029 23.1586 46.7581 23.5876 46.6904 24.0059C46.6227 24.4241 46.4349 24.8137 46.15 25.1273H46.1459Z" fill="white"/>
</svg>
