<svg width="654" height="387" viewBox="0 0 654 387" fill="none" xmlns="http://www.w3.org/2000/svg">
<g opacity="0.6" filter="url(#filter0_f_0_1)">
<rect x="194" y="182" width="77" height="6" rx="3" fill="url(#paint0_linear_0_1)"/>
</g>
<mask id="mask0_0_1" style="mask-type:alpha" maskUnits="userSpaceOnUse" x="0" y="0" width="654" height="387">
<rect width="654" height="387" rx="20" fill="#EBF4F6"/>
</mask>
<g mask="url(#mask0_0_1)">
<g opacity="0.5">
<rect x="-16" width="686" height="2" fill="#D9DFDF"/>
<rect x="-16" y="10" width="686" height="2" fill="#D9DFDF"/>
<rect x="-16" y="20" width="686" height="2" fill="#D9DFDF"/>
<rect x="-16" y="30" width="686" height="2" fill="#D9DFDF"/>
<rect x="-16" y="40" width="686" height="2" fill="#D9DFDF"/>
<rect x="-16" y="50" width="686" height="2" fill="#D9DFDF"/>
<rect x="-16" y="60" width="686" height="2" fill="#D9DFDF"/>
<rect x="-16" y="70" width="686" height="2" fill="#D9DFDF"/>
<rect x="-16" y="80" width="686" height="2" fill="#D9DFDF"/>
<rect x="-16" y="90" width="686" height="2" fill="#D9DFDF"/>
<rect x="-16" y="100" width="686" height="2" fill="#D9DFDF"/>
<rect x="-16" y="110" width="686" height="2" fill="#D9DFDF"/>
<rect x="-16" y="120" width="686" height="2" fill="#D9DFDF"/>
<rect x="-16" y="130" width="686" height="2" fill="#D9DFDF"/>
<rect x="-16" y="140" width="686" height="2" fill="#D9DFDF"/>
<rect x="-16" y="150" width="686" height="2" fill="#D9DFDF"/>
<rect x="-16" y="160" width="686" height="2" fill="#D9DFDF"/>
<rect x="-16" y="170" width="686" height="2" fill="#D9DFDF"/>
<rect x="-16" y="180" width="686" height="2" fill="#D9DFDF"/>
<rect x="-16" y="190" width="686" height="2" fill="#D9DFDF"/>
<rect x="-16" y="200" width="686" height="2" fill="#D9DFDF"/>
<rect x="-16" y="210" width="686" height="2" fill="#D9DFDF"/>
<rect x="-16" y="220" width="686" height="2" fill="#D9DFDF"/>
<rect x="-16" y="230" width="686" height="2" fill="#D9DFDF"/>
<rect x="-16" y="240" width="686" height="2" fill="#D9DFDF"/>
<rect x="-16" y="250" width="686" height="2" fill="#D9DFDF"/>
<rect x="-16" y="260" width="686" height="2" fill="#D9DFDF"/>
<rect x="-16" y="270" width="686" height="2" fill="#D9DFDF"/>
<rect x="-16" y="280" width="686" height="2" fill="#D9DFDF"/>
<rect x="-16" y="290" width="686" height="2" fill="#D9DFDF"/>
<rect x="-16" y="300" width="686" height="2" fill="#D9DFDF"/>
<rect x="-16" y="310" width="686" height="2" fill="#D9DFDF"/>
<rect x="-16" y="320" width="686" height="2" fill="#D9DFDF"/>
<rect x="-16" y="330" width="686" height="2" fill="#D9DFDF"/>
<rect x="-16" y="340" width="686" height="2" fill="#D9DFDF"/>
<rect x="-16" y="350" width="686" height="2" fill="#D9DFDF"/>
<rect x="-16" y="360" width="686" height="2" fill="#D9DFDF"/>
<rect x="-16" y="370" width="686" height="2" fill="#D9DFDF"/>
<rect x="-16" y="380" width="686" height="2" fill="#D9DFDF"/>
</g>
<g opacity="0.85" filter="url(#filter1_f_0_1)">
<rect x="-43" y="327" width="714" height="148" fill="#EBF4F6"/>
</g>
</g>
<g filter="url(#filter2_bd_0_1)">
<path d="M394.336 177.03L306.507 271.018C305.577 272.011 304.348 272.673 303.007 272.907C301.666 273.14 300.285 272.932 299.073 272.313C297.861 271.694 296.884 270.698 296.288 269.476C295.693 268.253 295.512 266.87 295.772 265.536L307.268 208.101L262.076 191.152C261.105 190.789 260.239 190.192 259.556 189.414C258.873 188.636 258.394 187.701 258.161 186.692C257.928 185.684 257.948 184.633 258.221 183.635C258.494 182.636 259.01 181.721 259.723 180.97L347.551 86.9815C348.482 85.9894 349.711 85.3266 351.052 85.0931C352.393 84.8596 353.773 85.0681 354.985 85.687C356.197 86.306 357.175 87.3018 357.77 88.5244C358.366 89.7469 358.547 91.1297 358.287 92.4642L346.759 149.962L391.952 166.887C392.915 167.252 393.774 167.849 394.452 168.624C395.129 169.399 395.606 170.329 395.838 171.332C396.071 172.334 396.052 173.379 395.785 174.373C395.517 175.366 395.009 176.279 394.304 177.03H394.336Z" fill="url(#paint1_linear_0_1)" fill-opacity="0.6" shape-rendering="crispEdges"/>
<path d="M392.135 177.986H392.098L393.607 176.376C394.205 175.74 394.636 174.966 394.862 174.124C395.089 173.282 395.104 172.397 394.907 171.548L395.838 171.332L394.907 171.548C394.71 170.698 394.307 169.91 393.732 169.253C393.158 168.596 392.43 168.091 391.614 167.781C391.614 167.781 391.613 167.781 391.613 167.781L346.424 150.856L345.663 150.571L345.822 149.774L357.349 92.2812C357.349 92.2806 357.349 92.28 357.349 92.2793C357.569 91.1492 357.416 89.9782 356.911 88.9428C356.407 87.9069 355.578 87.0627 354.551 86.538C353.523 86.0132 352.353 85.8365 351.216 86.0345C350.079 86.2324 349.038 86.794 348.249 87.6343C348.249 87.6346 348.249 87.635 348.248 87.6353L260.421 181.622L260.416 181.628C259.811 182.264 259.374 183.04 259.143 183.886L258.221 183.635L259.143 183.886C258.912 184.732 258.894 185.622 259.092 186.477C259.289 187.332 259.695 188.124 260.274 188.784C260.853 189.443 261.587 189.949 262.41 190.257L262.411 190.257L307.603 207.206L308.364 207.492L308.205 208.289L296.71 265.719C296.71 265.719 296.709 265.72 296.709 265.72C296.489 266.851 296.643 268.022 297.147 269.057C297.652 270.093 298.481 270.937 299.508 271.462C300.536 271.987 301.706 272.164 302.843 271.966L303.007 272.907L302.843 271.966C303.979 271.768 305.02 271.206 305.809 270.366L392.135 177.986ZM392.135 177.986L305.81 270.365L392.135 177.986Z" stroke="#03272C" stroke-opacity="0.15" stroke-width="1.91104" shape-rendering="crispEdges"/>
</g>
<g opacity="0.6" filter="url(#filter3_f_0_1)">
<rect x="58" y="29" width="126" height="6" rx="3" fill="url(#paint2_linear_0_1)"/>
</g>
<rect x="144" y="119" width="79" height="3" rx="1.5" fill="url(#paint3_linear_0_1)"/>
<g opacity="0.6" filter="url(#filter4_f_0_1)">
<rect x="511" y="79" width="79" height="3" rx="1.5" fill="url(#paint4_linear_0_1)"/>
</g>
<rect x="540" y="198" width="43" height="6" rx="3" fill="url(#paint5_linear_0_1)"/>
<rect x="327" y="49" width="43" height="6" rx="3" fill="url(#paint6_linear_0_1)"/>
<rect x="460" y="29" width="67" height="6" rx="3" fill="url(#paint7_linear_0_1)"/>
<g opacity="0.6" filter="url(#filter5_f_0_1)">
<rect x="405" y="139" width="79" height="6" rx="3" fill="url(#paint8_linear_0_1)"/>
</g>
<rect x="88" y="260" width="79" height="3" rx="1.5" fill="url(#paint9_linear_0_1)"/>
<g opacity="0.6" filter="url(#filter6_f_0_1)">
<rect x="468" y="260" width="43" height="3" rx="1.5" fill="url(#paint10_linear_0_1)"/>
</g>
<rect x="36" y="180" width="37" height="3" rx="1.5" fill="url(#paint11_linear_0_1)"/>
<rect x="371" y="220" width="28" height="3" rx="1.5" fill="url(#paint12_linear_0_1)"/>
<defs>
<filter id="filter0_f_0_1" x="189" y="177" width="87" height="16" filterUnits="userSpaceOnUse" color-interpolation-filters="sRGB">
<feFlood flood-opacity="0" result="BackgroundImageFix"/>
<feBlend mode="normal" in="SourceGraphic" in2="BackgroundImageFix" result="shape"/>
<feGaussianBlur stdDeviation="2.5" result="effect1_foregroundBlur_0_1"/>
</filter>
<filter id="filter1_f_0_1" x="-93" y="277" width="814" height="248" filterUnits="userSpaceOnUse" color-interpolation-filters="sRGB">
<feFlood flood-opacity="0" result="BackgroundImageFix"/>
<feBlend mode="normal" in="SourceGraphic" in2="BackgroundImageFix" result="shape"/>
<feGaussianBlur stdDeviation="25" result="effect1_foregroundBlur_0_1"/>
</filter>
<filter id="filter2_bd_0_1" x="212.326" y="56.5255" width="229.348" height="279.348" filterUnits="userSpaceOnUse" color-interpolation-filters="sRGB">
<feFlood flood-opacity="0" result="BackgroundImageFix"/>
<feGaussianBlur in="BackgroundImageFix" stdDeviation="2.5"/>
<feComposite in2="SourceAlpha" operator="in" result="effect1_backgroundBlur_0_1"/>
<feColorMatrix in="SourceAlpha" type="matrix" values="0 0 0 0 0 0 0 0 0 0 0 0 0 0 0 0 0 0 127 0" result="hardAlpha"/>
<feOffset dy="17.1993"/>
<feGaussianBlur stdDeviation="22.8369"/>
<feComposite in2="hardAlpha" operator="out"/>
<feColorMatrix type="matrix" values="0 0 0 0 0.0103684 0 0 0 0 0.152772 0 0 0 0 0.173611 0 0 0 0.07 0"/>
<feBlend mode="normal" in2="effect1_backgroundBlur_0_1" result="effect2_dropShadow_0_1"/>
<feBlend mode="normal" in="SourceGraphic" in2="effect2_dropShadow_0_1" result="shape"/>
</filter>
<filter id="filter3_f_0_1" x="53" y="24" width="136" height="16" filterUnits="userSpaceOnUse" color-interpolation-filters="sRGB">
<feFlood flood-opacity="0" result="BackgroundImageFix"/>
<feBlend mode="normal" in="SourceGraphic" in2="BackgroundImageFix" result="shape"/>
<feGaussianBlur stdDeviation="2.5" result="effect1_foregroundBlur_0_1"/>
</filter>
<filter id="filter4_f_0_1" x="506" y="74" width="89" height="13" filterUnits="userSpaceOnUse" color-interpolation-filters="sRGB">
<feFlood flood-opacity="0" result="BackgroundImageFix"/>
<feBlend mode="normal" in="SourceGraphic" in2="BackgroundImageFix" result="shape"/>
<feGaussianBlur stdDeviation="2.5" result="effect1_foregroundBlur_0_1"/>
</filter>
<filter id="filter5_f_0_1" x="400" y="134" width="89" height="16" filterUnits="userSpaceOnUse" color-interpolation-filters="sRGB">
<feFlood flood-opacity="0" result="BackgroundImageFix"/>
<feBlend mode="normal" in="SourceGraphic" in2="BackgroundImageFix" result="shape"/>
<feGaussianBlur stdDeviation="2.5" result="effect1_foregroundBlur_0_1"/>
</filter>
<filter id="filter6_f_0_1" x="463" y="255" width="53" height="13" filterUnits="userSpaceOnUse" color-interpolation-filters="sRGB">
<feFlood flood-opacity="0" result="BackgroundImageFix"/>
<feBlend mode="normal" in="SourceGraphic" in2="BackgroundImageFix" result="shape"/>
<feGaussianBlur stdDeviation="2.5" result="effect1_foregroundBlur_0_1"/>
</filter>
<linearGradient id="paint0_linear_0_1" x1="194" y1="185" x2="271" y2="185" gradientUnits="userSpaceOnUse">
<stop stop-color="#37B7C3" stop-opacity="0"/>
<stop offset="1" stop-color="#37B7C3"/>
</linearGradient>
<linearGradient id="paint1_linear_0_1" x1="327" y1="85" x2="327" y2="281.5" gradientUnits="userSpaceOnUse">
<stop stop-color="white"/>
<stop offset="1" stop-color="#EBF4F6"/>
</linearGradient>
<linearGradient id="paint2_linear_0_1" x1="58" y1="32" x2="184" y2="32" gradientUnits="userSpaceOnUse">
<stop stop-color="#37B7C3" stop-opacity="0"/>
<stop offset="1" stop-color="#37B7C3"/>
</linearGradient>
<linearGradient id="paint3_linear_0_1" x1="144" y1="120.5" x2="223" y2="120.5" gradientUnits="userSpaceOnUse">
<stop stop-color="#37B7C3" stop-opacity="0"/>
<stop offset="1" stop-color="#37B7C3"/>
</linearGradient>
<linearGradient id="paint4_linear_0_1" x1="511" y1="80.5" x2="590" y2="80.5" gradientUnits="userSpaceOnUse">
<stop stop-color="#37B7C3" stop-opacity="0"/>
<stop offset="1" stop-color="#37B7C3"/>
</linearGradient>
<linearGradient id="paint5_linear_0_1" x1="540" y1="201" x2="583" y2="201" gradientUnits="userSpaceOnUse">
<stop stop-color="#37B7C3" stop-opacity="0"/>
<stop offset="1" stop-color="#37B7C3"/>
</linearGradient>
<linearGradient id="paint6_linear_0_1" x1="327" y1="52" x2="370" y2="52" gradientUnits="userSpaceOnUse">
<stop stop-color="#37B7C3" stop-opacity="0"/>
<stop offset="1" stop-color="#37B7C3"/>
</linearGradient>
<linearGradient id="paint7_linear_0_1" x1="460" y1="32" x2="527" y2="32" gradientUnits="userSpaceOnUse">
<stop stop-color="#37B7C3" stop-opacity="0"/>
<stop offset="1" stop-color="#37B7C3"/>
</linearGradient>
<linearGradient id="paint8_linear_0_1" x1="405" y1="142" x2="484" y2="142" gradientUnits="userSpaceOnUse">
<stop stop-color="#37B7C3" stop-opacity="0"/>
<stop offset="1" stop-color="#37B7C3"/>
</linearGradient>
<linearGradient id="paint9_linear_0_1" x1="88" y1="261.5" x2="167" y2="261.5" gradientUnits="userSpaceOnUse">
<stop stop-color="#37B7C3" stop-opacity="0"/>
<stop offset="1" stop-color="#37B7C3"/>
</linearGradient>
<linearGradient id="paint10_linear_0_1" x1="468" y1="261.5" x2="511" y2="261.5" gradientUnits="userSpaceOnUse">
<stop stop-color="#37B7C3" stop-opacity="0"/>
<stop offset="1" stop-color="#37B7C3"/>
</linearGradient>
<linearGradient id="paint11_linear_0_1" x1="36" y1="181.5" x2="73" y2="181.5" gradientUnits="userSpaceOnUse">
<stop stop-color="#37B7C3" stop-opacity="0"/>
<stop offset="1" stop-color="#37B7C3"/>
</linearGradient>
<linearGradient id="paint12_linear_0_1" x1="371" y1="221.5" x2="399" y2="221.5" gradientUnits="userSpaceOnUse">
<stop stop-color="#37B7C3" stop-opacity="0"/>
<stop offset="1" stop-color="#37B7C3"/>
</linearGradient>
</defs>
</svg>
