<svg width="66" height="66" viewBox="0 0 66 66" fill="none" xmlns="http://www.w3.org/2000/svg">
<circle cx="33" cy="33" r="33" fill="#03272C"/>
<path d="M34.125 25.125V31.1803L39.2466 28.6181C39.3788 28.552 39.5227 28.5126 39.6702 28.5021C39.8177 28.4916 39.9657 28.5103 40.106 28.5571C40.2462 28.6038 40.3759 28.6777 40.4876 28.7746C40.5993 28.8714 40.6908 28.9893 40.7569 29.1216C40.823 29.2538 40.8624 29.3977 40.8729 29.5452C40.8834 29.6927 40.8647 29.8407 40.818 29.981C40.7712 30.1212 40.6973 30.2509 40.6004 30.3626C40.5036 30.4743 40.3857 30.5658 40.2534 30.6319L33.5034 34.0069C33.3319 34.0927 33.1412 34.1333 32.9495 34.1247C32.7578 34.1161 32.5716 34.0586 32.4084 33.9577C32.2452 33.8568 32.1105 33.7158 32.0172 33.5482C31.9238 33.3806 31.8749 33.1919 31.875 33V25.125C31.875 24.8266 31.9935 24.5405 32.2045 24.3295C32.4155 24.1185 32.7016 24 33 24C33.2984 24 33.5845 24.1185 33.7955 24.3295C34.0065 24.5405 34.125 24.8266 34.125 25.125ZM33 45.375C30.5525 45.375 28.1599 44.6492 26.1248 43.2894C24.0898 41.9297 22.5036 39.997 21.567 37.7357C20.6304 35.4745 20.3853 32.9863 20.8628 30.5858C21.3403 28.1852 22.5189 25.9802 24.2496 24.2496C25.9802 22.5189 28.1852 21.3403 30.5858 20.8628C32.9863 20.3853 35.4745 20.6304 37.7357 21.567C39.997 22.5036 41.9297 24.0898 43.2894 26.1248C44.6492 28.1599 45.375 30.5525 45.375 33C45.375 33.2984 45.4935 33.5845 45.7045 33.7955C45.9155 34.0065 46.2016 34.125 46.5 34.125C46.7984 34.125 47.0845 34.0065 47.2955 33.7955C47.5065 33.5845 47.625 33.2984 47.625 33C47.625 30.1075 46.7673 27.2799 45.1602 24.8748C43.5532 22.4697 41.2691 20.5952 38.5968 19.4883C35.9244 18.3813 32.9838 18.0917 30.1468 18.656C27.3098 19.2203 24.7039 20.6132 22.6586 22.6586C20.6132 24.7039 19.2203 27.3098 18.656 30.1468C18.0917 32.9838 18.3813 35.9244 19.4883 38.5968C20.5952 41.2691 22.4697 43.5532 24.8748 45.1602C27.2799 46.7673 30.1075 47.625 33 47.625C33.2984 47.625 33.5845 47.5065 33.7955 47.2955C34.0065 47.0845 34.125 46.7984 34.125 46.5C34.125 46.2016 34.0065 45.9155 33.7955 45.7045C33.5845 45.4935 33.2984 45.375 33 45.375ZM45.1809 42.9309C45.8106 42.3017 46.2395 41.4999 46.4133 40.6269C46.5872 39.7539 46.4983 38.849 46.1577 38.0265C45.8172 37.2041 45.2405 36.5011 44.5004 36.0065C43.7603 35.5119 42.8901 35.2479 42 35.2479C41.1099 35.2479 40.2397 35.5119 39.4996 36.0065C38.7595 36.5011 38.1828 37.2041 37.8423 38.0265C37.5018 38.849 37.4128 39.7539 37.5867 40.6269C37.7606 41.4999 38.1894 42.3017 38.8191 42.9309C37.6344 43.6877 36.776 44.8607 36.413 46.2188C36.3701 46.3848 36.3658 46.5585 36.4003 46.7265C36.4348 46.8945 36.5073 47.0523 36.6122 47.188C36.7171 47.3237 36.8516 47.4336 37.0055 47.5094C37.1593 47.5851 37.3285 47.6247 37.5 47.625H46.5C46.6724 47.625 46.8426 47.5854 46.9972 47.5091C47.1519 47.4329 47.287 47.3222 47.392 47.1855C47.4971 47.0487 47.5693 46.8897 47.6031 46.7206C47.6369 46.5515 47.6314 46.3769 47.587 46.2103C47.2221 44.8553 46.3639 43.6857 45.1809 42.9309Z" fill="white"/>
</svg>
