<svg width="66" height="66" viewBox="0 0 66 66" fill="none" xmlns="http://www.w3.org/2000/svg">
<circle cx="33" cy="33" r="33" fill="#03272C"/>
<path d="M45.2113 24.0699L39.7426 18.6012C39.6409 18.4996 39.5203 18.4191 39.3875 18.3642C39.2547 18.3093 39.1124 18.2811 38.9688 18.2813H28.0312C27.4511 18.2813 26.8947 18.5117 26.4845 18.922C26.0742 19.3322 25.8438 19.8886 25.8438 20.4688V22.6563H23.6562C23.0761 22.6563 22.5197 22.8867 22.1095 23.297C21.6992 23.7072 21.4688 24.2636 21.4688 24.8438V44.5312C21.4688 45.1114 21.6992 45.6678 22.1095 46.078C22.5197 46.4883 23.0761 46.7188 23.6562 46.7188H38.9688C39.5489 46.7188 40.1053 46.4883 40.5155 46.078C40.9258 45.6678 41.1562 45.1114 41.1562 44.5312V42.3438H43.3438C43.9239 42.3438 44.4803 42.1133 44.8905 41.703C45.3008 41.2928 45.5312 40.7364 45.5312 40.1562V24.8438C45.5314 24.7001 45.5032 24.5578 45.4483 24.425C45.3934 24.2922 45.3129 24.1716 45.2113 24.0699ZM34.5938 41.25H28.0312C27.7412 41.25 27.463 41.1348 27.2579 40.9296C27.0527 40.7245 26.9375 40.4463 26.9375 40.1562C26.9375 39.8662 27.0527 39.588 27.2579 39.3829C27.463 39.1777 27.7412 39.0625 28.0312 39.0625H34.5938C34.8838 39.0625 35.162 39.1777 35.3671 39.3829C35.5723 39.588 35.6875 39.8662 35.6875 40.1562C35.6875 40.4463 35.5723 40.7245 35.3671 40.9296C35.162 41.1348 34.8838 41.25 34.5938 41.25ZM34.5938 36.875H28.0312C27.7412 36.875 27.463 36.7598 27.2579 36.5546C27.0527 36.3495 26.9375 36.0713 26.9375 35.7812C26.9375 35.4912 27.0527 35.213 27.2579 35.0079C27.463 34.8027 27.7412 34.6875 28.0312 34.6875H34.5938C34.8838 34.6875 35.162 34.8027 35.3671 35.0079C35.5723 35.213 35.6875 35.4912 35.6875 35.7812C35.6875 36.0713 35.5723 36.3495 35.3671 36.5546C35.162 36.7598 34.8838 36.875 34.5938 36.875ZM43.3438 40.1562H41.1562V29.2188C41.1564 29.0751 41.1282 28.9328 41.0733 28.8C41.0184 28.6672 40.9379 28.5466 40.8363 28.4449L35.3676 22.9762C35.2659 22.8746 35.1453 22.7941 35.0125 22.7392C34.8797 22.6843 34.7374 22.6561 34.5938 22.6563H28.0312V20.4688H38.5162L43.3438 25.2963V40.1562Z" fill="white"/>
</svg>
