<svg width="61" height="60" viewBox="0 0 61 60" fill="none" xmlns="http://www.w3.org/2000/svg">
<g filter="url(#filter0_dii_19_465)">
<path d="M2.5 13C2.5 6.37258 7.87258 1 14.5 1H46.5C53.1274 1 58.5 6.37258 58.5 13V45C58.5 51.6274 53.1274 57 46.5 57H14.5C7.87258 57 2.5 51.6274 2.5 45V13Z" fill="white"/>
<path d="M3 13C3 6.64873 8.14873 1.5 14.5 1.5H46.5C52.8513 1.5 58 6.64873 58 13V45C58 51.3513 52.8513 56.5 46.5 56.5H14.5C8.14873 56.5 3 51.3513 3 45V13Z" stroke="#E4E7EC"/>
<path d="M36.0059 33.1191L34 31.112V37.75C34 37.9821 33.9078 38.2046 33.7437 38.3687C33.5796 38.5328 33.3571 38.625 33.125 38.625C32.8929 38.625 32.6704 38.5328 32.5063 38.3687C32.3422 38.2046 32.25 37.9821 32.25 37.75V31.112L30.2441 33.1191C30.1628 33.2004 30.0663 33.2648 29.96 33.3088C29.8538 33.3528 29.74 33.3755 29.625 33.3755C29.51 33.3755 29.3962 33.3528 29.29 33.3088C29.1837 33.2648 29.0872 33.2004 29.0059 33.1191C28.9246 33.0378 28.8602 32.9413 28.8162 32.835C28.7722 32.7288 28.7495 32.615 28.7495 32.5C28.7495 32.385 28.7722 32.2712 28.8162 32.165C28.8602 32.0587 28.9246 31.9622 29.0059 31.8809L32.5059 28.3809C32.5872 28.2996 32.6837 28.235 32.7899 28.191C32.8962 28.147 33.01 28.1243 33.125 28.1243C33.24 28.1243 33.3539 28.147 33.4601 28.191C33.5663 28.235 33.6628 28.2996 33.7441 28.3809L37.2441 31.8809C37.3254 31.9622 37.3898 32.0587 37.4338 32.165C37.4778 32.2712 37.5005 32.385 37.5005 32.5C37.5005 32.615 37.4778 32.7288 37.4338 32.835C37.3898 32.9413 37.3254 33.0378 37.2441 33.1191C37.1628 33.2004 37.0663 33.2648 36.96 33.3088C36.8538 33.3528 36.74 33.3755 36.625 33.3755C36.51 33.3755 36.3962 33.3528 36.29 33.3088C36.1837 33.2648 36.0872 33.2004 36.0059 33.1191ZM34 19.375C32.2123 19.3763 30.4603 19.8751 28.9399 20.8154C27.4195 21.7557 26.1908 23.1005 25.3911 24.6994C24.439 24.5595 23.4683 24.6174 22.5396 24.8695C21.6109 25.1216 20.7442 25.5624 19.9935 26.1646C19.2428 26.7667 18.6244 27.5171 18.1768 28.369C17.7291 29.2208 17.462 30.1558 17.392 31.1156C17.3219 32.0754 17.4505 33.0392 17.7698 33.9471C18.089 34.8549 18.5919 35.6871 19.2473 36.3918C19.9026 37.0965 20.6961 37.6586 21.5784 38.0428C22.4607 38.427 23.4127 38.6252 24.375 38.625H28.75C28.9821 38.625 29.2046 38.5328 29.3687 38.3687C29.5328 38.2046 29.625 37.9821 29.625 37.75C29.625 37.5179 29.5328 37.2954 29.3687 37.1313C29.2046 36.9672 28.9821 36.875 28.75 36.875H24.375C22.9826 36.875 21.6473 36.3219 20.6627 35.3373C19.6781 34.3527 19.125 33.0174 19.125 31.625C19.125 30.2326 19.6781 28.8973 20.6627 27.9127C21.6473 26.9281 22.9826 26.375 24.375 26.375C24.4953 26.375 24.6156 26.375 24.7348 26.3881C24.4957 27.2381 24.3746 28.117 24.375 29C24.375 29.2321 24.4672 29.4546 24.6313 29.6187C24.7954 29.7828 25.0179 29.875 25.25 29.875C25.4821 29.875 25.7046 29.7828 25.8687 29.6187C26.0328 29.4546 26.125 29.2321 26.125 29C26.1252 27.5803 26.5092 26.187 27.2364 24.9676C27.9636 23.7483 29.0069 22.7482 30.2559 22.0732C31.5049 21.3982 32.9132 21.0734 34.3316 21.1332C35.7501 21.193 37.126 21.6351 38.3138 22.4128C39.5016 23.1905 40.457 24.2749 41.079 25.5511C41.701 26.8273 41.9664 28.248 41.8472 29.6627C41.7279 31.0774 41.2284 32.4336 40.4016 33.5877C39.5747 34.7418 38.4512 35.6509 37.15 36.2188C36.9652 36.2988 36.8138 36.4402 36.7211 36.619C36.6285 36.7978 36.6003 37.0031 36.6415 37.2002C36.6826 37.3974 36.7904 37.5743 36.9468 37.7012C37.1032 37.828 37.2986 37.897 37.5 37.8966C37.6206 37.8965 37.7398 37.8711 37.85 37.8222C39.8771 36.938 41.5378 35.3826 42.5529 33.4178C43.568 31.453 43.8755 29.1985 43.4237 27.0336C42.9718 24.8687 41.7883 22.9254 40.072 21.5306C38.3558 20.1358 36.2116 19.3746 34 19.375Z" fill="#03272C"/>
</g>
<defs>
<filter id="filter0_dii_19_465" x="0.5" y="0" width="60" height="60" filterUnits="userSpaceOnUse" color-interpolation-filters="sRGB">
<feFlood flood-opacity="0" result="BackgroundImageFix"/>
<feColorMatrix in="SourceAlpha" type="matrix" values="0 0 0 0 0 0 0 0 0 0 0 0 0 0 0 0 0 0 127 0" result="hardAlpha"/>
<feOffset dy="1"/>
<feGaussianBlur stdDeviation="1"/>
<feComposite in2="hardAlpha" operator="out"/>
<feColorMatrix type="matrix" values="0 0 0 0 0.0627451 0 0 0 0 0.0941176 0 0 0 0 0.156863 0 0 0 0.05 0"/>
<feBlend mode="normal" in2="BackgroundImageFix" result="effect1_dropShadow_19_465"/>
<feBlend mode="normal" in="SourceGraphic" in2="effect1_dropShadow_19_465" result="shape"/>
<feColorMatrix in="SourceAlpha" type="matrix" values="0 0 0 0 0 0 0 0 0 0 0 0 0 0 0 0 0 0 127 0" result="hardAlpha"/>
<feOffset dy="-2"/>
<feComposite in2="hardAlpha" operator="arithmetic" k2="-1" k3="1"/>
<feColorMatrix type="matrix" values="0 0 0 0 0.0627451 0 0 0 0 0.0941176 0 0 0 0 0.156863 0 0 0 0.05 0"/>
<feBlend mode="normal" in2="shape" result="effect2_innerShadow_19_465"/>
<feColorMatrix in="SourceAlpha" type="matrix" values="0 0 0 0 0 0 0 0 0 0 0 0 0 0 0 0 0 0 127 0" result="hardAlpha"/>
<feMorphology radius="1" operator="erode" in="SourceAlpha" result="effect3_innerShadow_19_465"/>
<feOffset/>
<feComposite in2="hardAlpha" operator="arithmetic" k2="-1" k3="1"/>
<feColorMatrix type="matrix" values="0 0 0 0 0.0627451 0 0 0 0 0.0941176 0 0 0 0 0.156863 0 0 0 0.18 0"/>
<feBlend mode="normal" in2="effect2_innerShadow_19_465" result="effect3_innerShadow_19_465"/>
</filter>
</defs>
</svg>
